<svg xmlns="http://www.w3.org/2000/svg" xmlns:xlink="http://www.w3.org/1999/xlink" id="Layer_1" x="0px" y="0px" viewBox="0 0 526 411.7" style="enable-background:new 0 0 526 411.7;" xml:space="preserve">
<style type="text/css">
	@keyframes maximize{
		0% { stroke-width: 0; }
		50% { stroke-width: 3; }
		100% { stroke-width: 0; }
	}
	.announce{
		stroke: #24B8EB;
		animation-name: maximize;
		animation-duration: 2s;
		animation-iteration-count: infinite;
		animation-direction: reverse;
		animation-timing-function: ease-in-out;
	}

	@keyframes subscribe{
		0% { transform: translateX(0em);}
		20% { transform: translateX(0.5em);}
		40% { transform: translateX(0.5em);}
		60% { transform: translateX(0em);}
		100% { transform: translateX(0em);}
	}
	#subscribe{
		animation-name: subscribe;
		animation-duration: 6s;
		animation-iteration-count: infinite;
		animation-direction: reverse;
		animation-timing-function: ease-in-out;
	}
	@keyframes subs{
		0% { transform: translateX(0em);}
		20% { transform: translateX(-0.5em);}
		40% { transform: translateX(-0.5em);}
		60% { transform: translateX(0em);}
		100% { transform: translateX(0em);}
	}
	#subs{
		animation-name: subs;
		animation-duration: 6s;
		animation-iteration-count: infinite;
		animation-direction: reverse;
		animation-timing-function: ease-in-out;
	}
	@keyframes plane{
		0%{ transform: translate(0em, 0em);}
		100%{ transform: translate(0.35em, -1em);}
	}
	#plane{
		animation: plane 2s alternate infinite;
		animation-timing-function: linear;
	}

	

	.st0{fill-rule:evenodd;clip-rule:evenodd;fill:#24B8EB;}
	.st1{fill:#E0F6FD;}
	.st2{fill:#A7E3F7;}
	.st3{fill:#E1E1E1;}
	.st4{fill:#24B8EB;}
	.st5{fill:#1A2E35;}
	.st6{fill:#455A64;}
	.st7{fill:#BDEAF9;}
	.st8{fill:#E9F8FD;}
	.st9{fill:#FFFFFF;}
	.st10{fill:#FAFAFA;}
	.st11{fill:#FF4F5B;}
	.st12{fill:none;}
	.st13{fill:#FFBF9D;}
	.st14{fill:url(#SVGID_1_);}
	.st15{opacity:0.3;}
	.st16{opacity:0.2;}
	.st17{fill:#FDCEAE;}
	.st18{fill:#FF9A6C;}
	.st19{opacity:0.5;}
	.st20{opacity:0.8;}
</style>
<g transform="translate(-1122.482 -150.416)">
	<g transform="translate(1122.482 294.24)">
		<path class="st0" d="M1.1,2.1c-0.3-0.5-0.7-0.8-0.6-1C0.6,0.8,1,0.6,1.2,0.3c0.2,0.3,0.6,0.5,0.6,0.8C1.8,1.4,1.5,1.6,1.1,2.1z"></path>
		<path class="st0" d="M16.2,2.1c-0.4-0.5-0.8-0.8-0.7-1c0.1-0.3,0.5-0.5,0.7-0.8c0.2,0.2,0.6,0.5,0.6,0.7S16.5,1.6,16.2,2.1z"></path>
		<path class="st0" d="M31.2,2.1c-0.4-0.5-0.8-0.8-0.7-1c0.1-0.3,0.5-0.5,0.7-0.8c0.2,0.2,0.6,0.5,0.6,0.7    C31.9,1.3,31.5,1.6,31.2,2.1z"></path>
		<path class="st0" d="M46.2,2.1c-0.4-0.5-0.8-0.8-0.7-1c0.1-0.3,0.5-0.5,0.7-0.8c0.2,0.2,0.6,0.5,0.6,0.7S46.5,1.6,46.2,2.1z"></path>
		<path class="st0" d="M61.2,2.1c-0.4-0.5-0.8-0.8-0.7-1c0.1-0.3,0.5-0.5,0.7-0.8c0.2,0.2,0.6,0.5,0.6,0.7S61.5,1.6,61.2,2.1z"></path>
		<path class="st0" d="M76.2,2.1c-0.4-0.5-0.8-0.8-0.7-1c0.1-0.3,0.5-0.5,0.7-0.8c0.2,0.2,0.6,0.5,0.6,0.7    C76.9,1.3,76.5,1.6,76.2,2.1z"></path>
		<path class="st0" d="M91.2,0c0.3,0.5,0.7,0.8,0.7,1c0,0.3-0.4,0.5-0.6,0.8C91,1.5,90.6,1.3,90.5,1C90.4,0.8,90.8,0.5,91.2,0z"></path>
		<path class="st0" d="M107.2,1.1c-0.5,0.3-0.8,0.7-1,0.6c-0.3,0-0.5-0.4-0.8-0.6c0.3-0.3,0.5-0.6,0.8-0.7    C106.4,0.3,106.7,0.7,107.2,1.1z"></path>
		<path class="st0" d="M9.7,8.5c-0.4,0.3-0.7,0.7-1,0.7c-0.3,0-0.5-0.4-0.8-0.6C8.2,8.4,8.4,8,8.7,7.9C8.9,7.8,9.2,8.2,9.7,8.5z"></path>
		<path class="st0" d="M23.6,7.5c0.3,0.5,0.7,0.8,0.7,1c0,0.3-0.4,0.5-0.6,0.8C23.4,9,23,8.8,23,8.5C22.9,8.3,23.3,8,23.6,7.5z"></path>
		<path class="st0" d="M38.7,7.5c0.3,0.5,0.6,0.8,0.6,1c0,0.3-0.4,0.5-0.7,0.7C38.4,9,38,8.7,38,8.4C37.9,8.3,38.4,8,38.7,7.5z"></path>
		<path class="st0" d="M53.6,9.6c-0.3-0.5-0.7-0.8-0.7-1c0.1-0.3,0.5-0.5,0.8-0.7c0.2,0.3,0.6,0.5,0.6,0.8C54.3,8.9,54,9.1,53.6,9.6    z"></path>
		<path class="st0" d="M68.8,9.6c-0.4-0.4-0.8-0.7-0.8-0.9c0.1-0.3,0.4-0.6,0.7-0.8c0.2,0.2,0.6,0.4,0.7,0.7S69,9.1,68.8,9.6z"></path>
		<path class="st0" d="M83.7,9.6c-0.3-0.5-0.8-0.8-0.7-1c0.1-0.3,0.5-0.5,0.8-0.8c0.2,0.3,0.6,0.5,0.6,0.8S84,9.1,83.7,9.6z"></path>
		<path class="st0" d="M99.7,8.6c-0.5,0.3-0.7,0.7-1,0.7c-0.3,0-0.5-0.4-0.8-0.6c0.3-0.3,0.5-0.7,0.8-0.7    C98.9,7.8,99.2,8.2,99.7,8.6z"></path>
		<path class="st0" d="M2.1,16.1c-0.5,0.3-0.8,0.7-1,0.6c-0.3,0-0.5-0.4-0.7-0.7c0.3-0.3,0.5-0.6,0.8-0.7    C1.4,15.3,1.7,15.7,2.1,16.1z"></path>
		<path class="st0" d="M17.1,16.1c-0.5,0.3-0.8,0.6-1,0.6c-0.3,0-0.5-0.4-0.7-0.7c0.3-0.2,0.5-0.6,0.8-0.7    C16.4,15.3,16.7,15.8,17.1,16.1z"></path>
		<path class="st0" d="M31.2,15c0.3,0.5,0.7,0.8,0.7,1c0,0.3-0.4,0.5-0.6,0.8c-0.3-0.3-0.7-0.5-0.8-0.8C30.4,15.8,30.8,15.5,31.2,15    z"></path>
		<path class="st0" d="M47.2,16.1c-0.5,0.3-0.8,0.7-1,0.6c-0.3,0-0.5-0.4-0.8-0.6c0.3-0.3,0.5-0.6,0.8-0.7    C46.4,15.3,46.7,15.7,47.2,16.1z"></path>
		<path class="st0" d="M61.2,17.1c-0.4-0.4-0.8-0.8-0.8-1c0.1-0.3,0.5-0.5,0.7-0.8c0.2,0.2,0.6,0.5,0.7,0.7    C61.9,16.3,61.5,16.6,61.2,17.1z"></path>
		<path class="st0" d="M77.2,16.1c-0.5,0.3-0.8,0.6-1,0.6c-0.3,0-0.5-0.4-0.7-0.7c0.3-0.2,0.5-0.6,0.8-0.7    C76.5,15.3,76.7,15.8,77.2,16.1z"></path>
		<path class="st0" d="M92.2,16.1c-0.5,0.3-0.8,0.7-1,0.6c-0.3,0-0.5-0.4-0.7-0.7c0.3-0.3,0.5-0.6,0.8-0.7    C91.4,15.3,91.7,15.7,92.2,16.1z"></path>
		<path class="st0" d="M107.1,16c-0.4,0.4-0.7,0.8-0.9,0.8c-0.3-0.1-0.6-0.4-0.9-0.6c0.3-0.3,0.5-0.6,0.8-0.7    C106.4,15.3,106.7,15.7,107.1,16z"></path>
		<path class="st0" d="M9.7,23.6c-0.5,0.3-0.8,0.6-1,0.6c-0.3,0-0.5-0.4-0.7-0.7c0.3-0.2,0.5-0.6,0.8-0.7    C8.9,22.8,9.2,23.3,9.7,23.6z"></path>
		<path class="st0" d="M22.6,23.5c0.5-0.3,0.8-0.7,1-0.7c0.3,0.1,0.5,0.5,0.8,0.8c-0.3,0.2-0.5,0.6-0.8,0.6S23.1,23.9,22.6,23.5z"></path>
		<path class="st0" d="M38.7,24.6c-0.4-0.5-0.8-0.8-0.7-1c0.1-0.3,0.5-0.5,0.7-0.8c0.2,0.2,0.6,0.5,0.6,0.7S39,24.1,38.7,24.6z"></path>
		<path class="st0" d="M53.7,24.6c-0.4-0.5-0.8-0.8-0.7-1c0.1-0.3,0.5-0.5,0.7-0.8c0.2,0.2,0.6,0.5,0.6,0.7S54,24.1,53.7,24.6z"></path>
		<path class="st0" d="M68.7,24.6c-0.4-0.5-0.8-0.8-0.7-1c0.1-0.3,0.5-0.5,0.7-0.8c0.2,0.2,0.6,0.5,0.6,0.7S69,24.1,68.7,24.6z"></path>
		<path class="st0" d="M83.7,24.6c-0.4-0.5-0.8-0.8-0.7-1c0.1-0.3,0.5-0.5,0.7-0.8c0.2,0.2,0.6,0.5,0.6,0.7S84,24.1,83.7,24.6z"></path>
		<path class="st0" d="M98.7,24.6c-0.4-0.5-0.8-0.8-0.7-1c0.1-0.3,0.5-0.5,0.7-0.8c0.2,0.2,0.6,0.5,0.6,0.7S99,24.1,98.7,24.6z"></path>
		<path class="st0" d="M1.2,32.1c-0.4-0.5-0.8-0.8-0.7-1c0.1-0.3,0.5-0.5,0.7-0.8c0.2,0.2,0.6,0.5,0.6,0.7S1.5,31.6,1.2,32.1z"></path>
		<path class="st0" d="M16.2,32.1c-0.4-0.5-0.8-0.8-0.7-1c0.1-0.3,0.5-0.5,0.7-0.8c0.2,0.2,0.6,0.5,0.6,0.7S16.5,31.6,16.2,32.1z"></path>
		<path class="st0" d="M31.2,32.1c-0.4-0.5-0.8-0.8-0.7-1c0.1-0.3,0.5-0.5,0.7-0.8c0.2,0.2,0.6,0.5,0.6,0.7    C31.9,31.3,31.5,31.6,31.2,32.1z"></path>
		<path class="st0" d="M47.2,31c-0.4,0.4-0.7,0.7-1,0.7c-0.3,0-0.5-0.4-0.8-0.6c0.3-0.3,0.5-0.7,0.8-0.8    C46.4,30.3,46.7,30.7,47.2,31z"></path>
		<path class="st0" d="M61.2,32.1c-0.4-0.5-0.8-0.8-0.7-1c0.1-0.3,0.5-0.5,0.7-0.8c0.2,0.2,0.6,0.5,0.6,0.7S61.5,31.6,61.2,32.1z"></path>
		<path class="st0" d="M76.2,32.1c-0.4-0.5-0.8-0.8-0.7-1c0.1-0.3,0.5-0.5,0.7-0.8c0.2,0.2,0.6,0.5,0.6,0.7    C76.9,31.3,76.5,31.6,76.2,32.1z"></path>
		<path class="st0" d="M91.2,32.1c-0.4-0.5-0.8-0.8-0.7-1c0.1-0.3,0.5-0.5,0.7-0.8c0.2,0.2,0.6,0.5,0.6,0.7    C91.9,31.3,91.5,31.6,91.2,32.1z"></path>
		<path class="st0" d="M106.2,32.1c-0.4-0.5-0.8-0.8-0.7-1c0.1-0.3,0.5-0.5,0.7-0.8c0.2,0.2,0.6,0.5,0.6,0.7S106.5,31.6,106.2,32.1z    "></path>
		<path class="st0" d="M9.7,38.6c-0.5,0.3-0.8,0.6-1,0.6c-0.3,0-0.5-0.4-0.7-0.7c0.3-0.2,0.5-0.6,0.8-0.7    C8.9,37.8,9.2,38.3,9.7,38.6z"></path>
		<path class="st0" d="M23.7,39.6c-0.4-0.4-0.8-0.7-0.8-0.9c0.1-0.3,0.4-0.5,0.7-0.8c0.2,0.2,0.6,0.4,0.7,0.7S24,39.1,23.7,39.6z"></path>
		<path class="st0" d="M38.8,39.6c-0.4-0.4-0.8-0.7-0.8-0.9c0.1-0.3,0.4-0.5,0.7-0.8c0.2,0.2,0.6,0.4,0.7,0.7S39,39.1,38.8,39.6z"></path>
		<path class="st0" d="M54.7,38.6c-0.5,0.3-0.8,0.7-1,0.6c-0.3,0-0.5-0.4-0.8-0.6c0.3-0.3,0.5-0.6,0.8-0.7    C53.9,37.8,54.2,38.2,54.7,38.6z"></path>
		<path class="st0" d="M68.7,39.6c-0.4-0.5-0.8-0.8-0.7-1c0.1-0.3,0.5-0.5,0.7-0.8c0.2,0.2,0.6,0.5,0.6,0.7S69,39.1,68.7,39.6z"></path>
		<path class="st0" d="M83.7,37.5c0.3,0.5,0.7,0.8,0.7,1c0,0.3-0.4,0.5-0.6,0.8C83.5,39,83,38.8,83,38.5    C82.9,38.3,83.3,38,83.7,37.5z"></path>
		<path class="st0" d="M98.8,37.5c0.3,0.5,0.6,0.8,0.6,1c0,0.3-0.4,0.5-0.7,0.7C98.4,39,98,38.7,98,38.4    C97.9,38.3,98.4,38,98.8,37.5z"></path>
		<path class="st0" d="M1.2,45c0.3,0.5,0.7,0.8,0.7,1c0,0.3-0.4,0.5-0.6,0.8c-0.3-0.3-0.7-0.5-0.8-0.8C0.4,45.8,0.8,45.5,1.2,45z"></path>
		<path class="st0" d="M16.2,47.1c-0.4-0.4-0.8-0.8-0.8-1c0.1-0.3,0.5-0.5,0.7-0.8c0.2,0.2,0.6,0.5,0.7,0.7S16.5,46.6,16.2,47.1z"></path>
		<path class="st0" d="M31.1,47.1c-0.3-0.5-0.8-0.8-0.7-1c0.1-0.3,0.5-0.5,0.8-0.8c0.2,0.3,0.6,0.5,0.6,0.8S31.5,46.6,31.1,47.1z"></path>
		<path class="st0" d="M46.1,47.1c-0.3-0.5-0.7-0.8-0.7-1c0.1-0.3,0.5-0.5,0.8-0.7c0.2,0.3,0.6,0.5,0.6,0.8    C46.8,46.4,46.5,46.6,46.1,47.1z"></path>
		<path class="st0" d="M62.2,46.1c-0.4,0.3-0.8,0.7-1,0.7c-0.3-0.1-0.5-0.5-0.8-0.8c0.3-0.2,0.5-0.6,0.8-0.6    C61.4,45.4,61.7,45.7,62.2,46.1z"></path>
		<path class="st0" d="M76.1,47.1c-0.3-0.5-0.7-0.8-0.7-1c0.1-0.3,0.5-0.5,0.8-0.7c0.2,0.3,0.6,0.5,0.6,0.8    C76.8,46.4,76.5,46.6,76.1,47.1z"></path>
		<path class="st0" d="M91.2,45c0.3,0.5,0.7,0.8,0.7,1c0,0.3-0.4,0.5-0.6,0.8c-0.3-0.3-0.7-0.5-0.8-0.8C90.4,45.8,90.8,45.5,91.2,45    z"></path>
		<path class="st0" d="M106.3,45c0.3,0.5,0.6,0.8,0.6,1c0,0.3-0.4,0.5-0.7,0.7c-0.3-0.3-0.6-0.5-0.7-0.8    C105.4,45.8,105.9,45.5,106.3,45z"></path>
		<path class="st0" d="M9.7,53.6c-0.5,0.3-0.7,0.7-1,0.7c-0.3,0-0.5-0.4-0.8-0.6c0.3-0.3,0.5-0.7,0.8-0.7    C8.9,52.8,9.2,53.2,9.7,53.6z"></path>
		<path class="st0" d="M24.7,53.6c-0.5,0.3-0.8,0.7-1,0.6c-0.3,0-0.5-0.4-0.8-0.7c0.3-0.3,0.5-0.6,0.8-0.7    C23.9,52.8,24.2,53.3,24.7,53.6z"></path>
		<path class="st0" d="M38.8,54.6c-0.4-0.4-0.8-0.7-0.8-0.9c0.1-0.3,0.4-0.6,0.7-0.8c0.2,0.2,0.6,0.4,0.7,0.7S39,54.1,38.8,54.6z"></path>
		<path class="st0" d="M53.7,52.5c0.3,0.5,0.7,0.8,0.7,1s-0.4,0.5-0.6,0.8c-0.3-0.3-0.7-0.5-0.8-0.8C52.9,53.3,53.3,53,53.7,52.5z"></path>
		<path class="st0" d="M69.7,53.5c-0.4,0.4-0.7,0.8-0.9,0.8c-0.3-0.1-0.6-0.4-0.8-0.7c0.2-0.2,0.5-0.6,0.7-0.7    C68.9,52.8,69.2,53.2,69.7,53.5z"></path>
		<path class="st0" d="M83.7,54.6c-0.4-0.5-0.8-0.8-0.7-1c0.1-0.3,0.5-0.5,0.7-0.8c0.2,0.2,0.6,0.5,0.6,0.7S84,54.1,83.7,54.6z"></path>
		<path class="st0" d="M98.7,54.6c-0.4-0.4-0.8-0.8-0.8-0.9c0.1-0.3,0.5-0.5,0.7-0.8c0.2,0.2,0.6,0.5,0.7,0.7    C99.4,53.8,99,54.1,98.7,54.6z"></path>
		<path class="st0" d="M1.2,62.1c-0.4-0.4-0.8-0.7-0.8-0.9c0.1-0.3,0.4-0.5,0.7-0.8c0.2,0.2,0.6,0.4,0.7,0.7S1.5,61.6,1.2,62.1z"></path>
		<path class="st0" d="M17.1,61c-0.4,0.4-0.7,0.8-0.9,0.8c-0.3-0.1-0.6-0.4-0.9-0.6c0.3-0.3,0.5-0.7,0.8-0.7    C16.4,60.3,16.7,60.7,17.1,61z"></path>
		<path class="st0" d="M31.2,62.1c-0.4-0.5-0.8-0.8-0.7-1c0.1-0.3,0.5-0.5,0.7-0.8c0.2,0.2,0.6,0.5,0.6,0.7    C31.9,61.3,31.5,61.6,31.2,62.1z"></path>
		<path class="st0" d="M46.2,62.1c-0.4-0.5-0.8-0.8-0.7-1c0.1-0.3,0.5-0.5,0.7-0.8c0.2,0.2,0.6,0.5,0.6,0.7S46.5,61.6,46.2,62.1z"></path>
		<path class="st0" d="M61.2,62.1c-0.4-0.5-0.8-0.8-0.7-1c0.1-0.3,0.5-0.5,0.7-0.8c0.2,0.2,0.6,0.5,0.6,0.7S61.5,61.6,61.2,62.1z"></path>
		<path class="st0" d="M76.2,62.1c-0.4-0.5-0.8-0.8-0.7-1c0.1-0.3,0.5-0.5,0.7-0.8c0.2,0.2,0.6,0.5,0.6,0.7    C76.9,61.3,76.5,61.6,76.2,62.1z"></path>
		<path class="st0" d="M90.2,61c0.4-0.3,0.8-0.7,1-0.7c0.3,0.1,0.5,0.5,0.8,0.8c-0.3,0.2-0.5,0.6-0.8,0.6    C90.8,61.7,90.6,61.4,90.2,61z"></path>
		<path class="st0" d="M107.2,61c-0.4,0.4-0.7,0.7-0.9,0.7c-0.3,0-0.5-0.4-0.8-0.6c0.3-0.3,0.5-0.7,0.8-0.8    C106.4,60.3,106.7,60.7,107.2,61z"></path>
		<path class="st0" d="M9.7,68.6c-0.5,0.3-0.8,0.6-1,0.6c-0.3,0-0.5-0.4-0.7-0.7c0.3-0.2,0.5-0.6,0.8-0.7    C8.9,67.8,9.2,68.3,9.7,68.6z"></path>
		<path class="st0" d="M23.6,69.6c-0.3-0.5-0.8-0.8-0.7-1c0.1-0.3,0.5-0.5,0.8-0.8c0.2,0.3,0.6,0.5,0.6,0.8S24,69.1,23.6,69.6z"></path>
		<path class="st0" d="M39.7,68.5c-0.4,0.3-0.7,0.7-1,0.7c-0.3,0-0.5-0.4-0.8-0.6c0.3-0.3,0.5-0.7,0.8-0.8    C38.9,67.8,39.2,68.2,39.7,68.5z"></path>
		<path class="st0" d="M53.7,67.5c0.3,0.5,0.7,0.8,0.7,1s-0.4,0.5-0.6,0.8c-0.3-0.3-0.7-0.5-0.8-0.8C52.9,68.3,53.3,68,53.7,67.5z"></path>
		<path class="st0" d="M67.6,68.5c0.5-0.3,0.8-0.7,1-0.7c0.3,0.1,0.5,0.5,0.8,0.8c-0.3,0.2-0.5,0.6-0.8,0.6S68.1,68.9,67.6,68.5z"></path>
		<path class="st0" d="M84.7,68.6c-0.5,0.3-0.7,0.7-1,0.7c-0.3,0-0.5-0.4-0.8-0.6c0.3-0.3,0.5-0.7,0.8-0.7    C83.9,67.8,84.2,68.2,84.7,68.6z"></path>
		<path class="st0" d="M99.7,68.5c-0.4,0.4-0.7,0.7-0.9,0.7c-0.3,0-0.5-0.4-0.8-0.6c0.3-0.3,0.5-0.7,0.8-0.8    C98.9,67.8,99.2,68.2,99.7,68.5z"></path>
		<path class="st0" d="M2.1,76c-0.4,0.4-0.7,0.8-0.9,0.8c-0.3-0.1-0.6-0.5-0.8-0.7c0.2-0.2,0.5-0.6,0.7-0.7S1.7,75.7,2.1,76z"></path>
		<path class="st0" d="M16.1,75c0.3,0.5,0.7,0.8,0.7,1c0,0.3-0.4,0.5-0.6,0.8c-0.3-0.3-0.7-0.5-0.8-0.8C15.4,75.8,15.8,75.5,16.1,75    z"></path>
		<path class="st0" d="M32.2,76.1c-0.5,0.3-0.8,0.6-1,0.6c-0.3,0-0.5-0.4-0.7-0.7c0.3-0.2,0.5-0.6,0.8-0.7    C31.4,75.3,31.7,75.8,32.2,76.1z"></path>
		<path class="st0" d="M46.1,77.1c-0.3-0.5-0.8-0.8-0.7-1c0.1-0.3,0.5-0.5,0.8-0.8c0.2,0.3,0.6,0.5,0.6,0.8S46.5,76.6,46.1,77.1z"></path>
		<path class="st0" d="M61.2,75c0.3,0.5,0.7,0.8,0.7,1c0,0.3-0.4,0.5-0.6,0.8c-0.3-0.3-0.7-0.5-0.8-0.8C60.4,75.8,60.8,75.5,61.2,75    z"></path>
		<path class="st0" d="M76.2,75c0.3,0.5,0.7,0.8,0.7,1c0,0.3-0.4,0.5-0.6,0.8c-0.3-0.3-0.7-0.5-0.8-0.8C75.4,75.8,75.8,75.5,76.2,75    z"></path>
		<path class="st0" d="M91.2,77.1c-0.4-0.5-0.8-0.8-0.7-1c0.1-0.3,0.5-0.5,0.7-0.8c0.2,0.2,0.6,0.5,0.6,0.7    C91.9,76.3,91.5,76.6,91.2,77.1z"></path>
		<path class="st0" d="M106.2,75c0.3,0.5,0.7,0.8,0.7,1c0,0.3-0.4,0.5-0.6,0.8c-0.3-0.3-0.7-0.5-0.8-0.8    C105.4,75.8,105.8,75.5,106.2,75z"></path>
		<path class="st0" d="M9.7,83.5c-0.4,0.4-0.7,0.7-1,0.7c-0.3,0-0.5-0.4-0.8-0.6c0.3-0.3,0.5-0.7,0.8-0.8    C8.9,82.8,9.2,83.2,9.7,83.5z"></path>
		<path class="st0" d="M24.7,83.6c-0.5,0.3-0.8,0.6-1,0.6c-0.3,0-0.5-0.4-0.7-0.7c0.3-0.2,0.5-0.6,0.8-0.7    C23.9,82.8,24.2,83.3,24.7,83.6z"></path>
		<path class="st0" d="M39.7,83.6c-0.5,0.3-0.8,0.7-1,0.6c-0.3,0-0.5-0.4-0.7-0.7c0.3-0.3,0.5-0.6,0.8-0.7    C38.9,82.8,39.2,83.3,39.7,83.6z"></path>
		<path class="st0" d="M54.7,83.6c-0.5,0.3-0.8,0.7-1,0.6c-0.3,0-0.5-0.4-0.8-0.7c0.3-0.3,0.5-0.6,0.8-0.7    C53.9,82.8,54.2,83.2,54.7,83.6z"></path>
		<path class="st0" d="M68.7,84.6c-0.4-0.5-0.8-0.8-0.7-1c0.1-0.3,0.5-0.5,0.7-0.8c0.2,0.2,0.6,0.5,0.6,0.7S69,84.1,68.7,84.6z"></path>
		<path class="st0" d="M83.7,84.6c-0.4-0.5-0.8-0.8-0.7-1c0.1-0.3,0.5-0.5,0.7-0.8c0.2,0.2,0.6,0.5,0.6,0.7S84,84.1,83.7,84.6z"></path>
		<path class="st0" d="M98.7,84.6c-0.4-0.5-0.8-0.8-0.7-1c0.1-0.3,0.5-0.5,0.7-0.8c0.2,0.2,0.6,0.5,0.6,0.7S99,84.1,98.7,84.6z"></path>
		<path class="st0" d="M2.1,91c-0.4,0.3-0.8,0.8-1,0.7c-0.3-0.1-0.5-0.5-0.8-0.7c0.3-0.2,0.5-0.6,0.8-0.6C1.4,90.4,1.7,90.7,2.1,91z    "></path>
		<path class="st0" d="M16.2,90c0.3,0.5,0.7,0.8,0.7,1c0,0.3-0.4,0.5-0.6,0.8c-0.3-0.3-0.7-0.5-0.8-0.8C15.4,90.8,15.8,90.5,16.2,90    z"></path>
		<path class="st0" d="M32.2,91.1c-0.5,0.3-0.8,0.7-1,0.6c-0.3-0.1-0.5-0.5-0.8-0.8c0.3-0.2,0.5-0.6,0.8-0.6    C31.5,90.4,31.7,90.8,32.2,91.1z"></path>
		<path class="st0" d="M47.2,91.1c-0.5,0.3-0.8,0.7-1,0.6c-0.3,0-0.5-0.4-0.8-0.7c0.3-0.3,0.5-0.6,0.8-0.7    C46.4,90.3,46.7,90.8,47.2,91.1z"></path>
		<path class="st0" d="M61.2,90c0.3,0.5,0.7,0.8,0.7,1c0,0.3-0.4,0.5-0.6,0.8c-0.3-0.3-0.7-0.5-0.8-0.8C60.4,90.8,60.8,90.5,61.2,90    z"></path>
		<path class="st0" d="M76.3,92.1c-0.4-0.4-0.8-0.7-0.8-0.9c0.1-0.3,0.4-0.5,0.7-0.8c0.2,0.2,0.6,0.4,0.7,0.7S76.5,91.6,76.3,92.1z"></path>
		<path class="st0" d="M91.3,92.1c-0.4-0.4-0.8-0.7-0.8-0.9c0.1-0.3,0.4-0.5,0.7-0.8c0.2,0.2,0.6,0.4,0.7,0.7S91.5,91.6,91.3,92.1z"></path>
		<path class="st0" d="M106.2,90c0.3,0.5,0.7,0.8,0.7,1c0,0.3-0.4,0.5-0.6,0.8c-0.3-0.3-0.7-0.5-0.8-0.8    C105.4,90.8,105.8,90.5,106.2,90z"></path>
		<path class="st0" d="M9.7,98.6c-0.5,0.3-0.8,0.6-1,0.6c-0.3,0-0.5-0.4-0.7-0.7c0.3-0.2,0.5-0.6,0.8-0.7    C8.9,97.8,9.2,98.3,9.7,98.6z"></path>
		<path class="st0" d="M23.7,97.5c0.3,0.5,0.6,0.8,0.6,1c0,0.3-0.4,0.5-0.7,0.7C23.4,99,23,98.8,23,98.4    C22.9,98.3,23.4,98,23.7,97.5z"></path>
		<path class="st0" d="M39.7,98.6c-0.5,0.3-0.8,0.7-1,0.6c-0.3,0-0.5-0.4-0.8-0.6c0.3-0.3,0.5-0.6,0.8-0.7    C38.9,97.8,39.2,98.3,39.7,98.6z"></path>
		<path class="st0" d="M53.7,97.5c0.3,0.5,0.7,0.8,0.7,1c0,0.3-0.4,0.5-0.6,0.8C53.4,99,53,98.8,53,98.5    C52.9,98.3,53.3,98,53.7,97.5z"></path>
		<path class="st0" d="M69.7,98.6c-0.5,0.3-0.8,0.7-1,0.6c-0.3,0-0.5-0.4-0.7-0.7c0.3-0.2,0.5-0.6,0.8-0.7    C68.9,97.8,69.2,98.3,69.7,98.6z"></path>
		<path class="st0" d="M82.6,98.5c0.5-0.3,0.8-0.7,1-0.7c0.3,0.1,0.5,0.5,0.8,0.8c-0.3,0.2-0.5,0.6-0.8,0.6S83.1,98.9,82.6,98.5z"></path>
		<path class="st0" d="M99.7,98.6c-0.5,0.3-0.8,0.7-1,0.6c-0.3,0-0.5-0.4-0.8-0.7c0.3-0.3,0.5-0.6,0.8-0.7    C98.9,97.8,99.2,98.3,99.7,98.6z"></path>
		<path class="st0" d="M2.1,106.1c-0.5,0.3-0.8,0.7-1,0.6c-0.3,0-0.5-0.4-0.7-0.7c0.3-0.2,0.5-0.6,0.8-0.7    C1.4,105.3,1.7,105.8,2.1,106.1z"></path>
		<path class="st0" d="M17.2,106.1c-0.5,0.3-0.8,0.7-1,0.6c-0.3,0-0.5-0.4-0.7-0.7c0.3-0.2,0.5-0.6,0.8-0.7    C16.4,105.3,16.7,105.8,17.2,106.1z"></path>
		<path class="st0" d="M32.2,106.1c-0.5,0.3-0.8,0.7-1,0.6c-0.3-0.1-0.5-0.5-0.8-0.8c0.3-0.2,0.5-0.6,0.8-0.6    C31.5,105.4,31.7,105.8,32.2,106.1z"></path>
		<path class="st0" d="M46.2,107.1c-0.4-0.5-0.8-0.8-0.7-1c0.1-0.3,0.5-0.5,0.7-0.8c0.2,0.2,0.6,0.5,0.6,0.7S46.5,106.6,46.2,107.1z    "></path>
		<path class="st0" d="M62.2,106.1c-0.5,0.3-0.8,0.7-1,0.6c-0.3-0.1-0.5-0.5-0.8-0.8c0.3-0.2,0.5-0.6,0.8-0.6    C61.5,105.4,61.7,105.8,62.2,106.1z"></path>
		<path class="st0" d="M76.2,107.1c-0.3-0.5-0.8-0.8-0.7-1c0.1-0.3,0.5-0.5,0.8-0.8c0.2,0.3,0.6,0.5,0.6,0.8S76.5,106.6,76.2,107.1z    "></path>
		<path class="st0" d="M92.2,106.1c-0.5,0.3-0.8,0.7-1,0.6c-0.3,0-0.5-0.4-0.7-0.7c0.3-0.3,0.5-0.6,0.8-0.7    C91.4,105.3,91.7,105.8,92.2,106.1z"></path>
		<path class="st0" d="M107.2,106c-0.4,0.4-0.7,0.7-1,0.7c-0.3,0-0.5-0.4-0.8-0.6c0.3-0.3,0.5-0.7,0.8-0.8    C106.4,105.3,106.7,105.7,107.2,106z"></path>
		<path class="st0" d="M9.7,113.7c-0.5,0.3-0.8,0.6-1,0.6c-0.3,0-0.5-0.4-0.7-0.7c0.3-0.2,0.5-0.6,0.8-0.7    C8.9,112.8,9.2,113.3,9.7,113.7z"></path>
		<path class="st0" d="M24.7,113.6c-0.5,0.3-0.8,0.7-1,0.6c-0.3,0-0.5-0.4-0.8-0.6c0.3-0.3,0.5-0.6,0.8-0.7    C23.9,112.8,24.2,113.3,24.7,113.6z"></path>
		<path class="st0" d="M39.7,113.5c-0.4,0.3-0.7,0.7-1,0.7c-0.3,0-0.5-0.4-0.8-0.6c0.3-0.3,0.5-0.7,0.8-0.8    C38.9,112.8,39.2,113.2,39.7,113.5z"></path>
		<path class="st0" d="M54.7,113.6c-0.5,0.3-0.8,0.7-1,0.6c-0.3,0-0.5-0.4-0.7-0.7c0.3-0.3,0.5-0.6,0.8-0.7    C53.9,112.8,54.2,113.3,54.7,113.6z"></path>
		<path class="st0" d="M69.7,113.5c-0.4,0.4-0.7,0.8-0.9,0.8c-0.3-0.1-0.6-0.4-0.8-0.7c0.2-0.2,0.5-0.6,0.7-0.7    C68.9,112.8,69.2,113.2,69.7,113.5z"></path>
		<path class="st0" d="M83.7,114.6c-0.3-0.5-0.8-0.8-0.7-1c0.1-0.3,0.5-0.5,0.8-0.8c0.2,0.3,0.6,0.5,0.6,0.8S84,114.1,83.7,114.6z"></path>
		<path class="st0" d="M99.7,113.5c-0.4,0.4-0.7,0.7-0.9,0.7c-0.3,0-0.5-0.4-0.8-0.6c0.3-0.3,0.5-0.7,0.8-0.8    C98.9,112.8,99.2,113.2,99.7,113.5z"></path>
	</g>
	<g transform="translate(1542.483 184.24)">
		<path class="st0" d="M-1.9,2.1c-0.3-0.5-0.7-0.8-0.6-1C-2.4,0.8-2,0.6-1.8,0.3c0.2,0.3,0.6,0.5,0.6,0.8C-1.2,1.4-1.5,1.6-1.9,2.1z    "></path>
		<path class="st0" d="M13.2,2.1c-0.4-0.5-0.8-0.8-0.7-1c0.1-0.3,0.5-0.5,0.7-0.8c0.2,0.2,0.6,0.5,0.6,0.7S13.5,1.6,13.2,2.1z"></path>
		<path class="st0" d="M28.2,2.1c-0.4-0.5-0.8-0.8-0.7-1c0.1-0.3,0.5-0.5,0.7-0.8c0.2,0.2,0.6,0.5,0.6,0.7    C28.9,1.3,28.5,1.6,28.2,2.1z"></path>
		<path class="st0" d="M43.2,2.1c-0.4-0.5-0.8-0.8-0.7-1c0.1-0.3,0.5-0.5,0.7-0.8c0.2,0.2,0.6,0.5,0.6,0.7S43.5,1.6,43.2,2.1z"></path>
		<path class="st0" d="M58.2,2.1c-0.4-0.5-0.8-0.8-0.7-1c0.1-0.3,0.5-0.5,0.7-0.8c0.2,0.2,0.6,0.5,0.6,0.7S58.5,1.6,58.2,2.1z"></path>
		<path class="st0" d="M73.2,2.1c-0.4-0.5-0.8-0.8-0.7-1c0.1-0.3,0.5-0.5,0.7-0.8c0.2,0.2,0.6,0.5,0.6,0.7    C73.9,1.3,73.5,1.6,73.2,2.1z"></path>
		<path class="st0" d="M88.2,0c0.3,0.5,0.7,0.8,0.7,1c0,0.3-0.4,0.5-0.6,0.8C88,1.5,87.6,1.3,87.5,1C87.4,0.8,87.8,0.5,88.2,0z"></path>
		<path class="st0" d="M104.2,1.1c-0.5,0.3-0.8,0.7-1,0.6c-0.3,0-0.5-0.4-0.8-0.6c0.3-0.3,0.5-0.6,0.8-0.7    C103.4,0.3,103.7,0.7,104.2,1.1z"></path>
		<path class="st0" d="M6.7,8.5c-0.4,0.3-0.7,0.7-1,0.7c-0.3,0-0.5-0.4-0.8-0.6C5.2,8.4,5.4,8,5.7,7.9C5.9,7.8,6.2,8.2,6.7,8.5z"></path>
		<path class="st0" d="M20.6,7.5c0.3,0.5,0.7,0.8,0.7,1c0,0.3-0.4,0.5-0.6,0.8C20.4,9,20,8.8,20,8.5C19.9,8.3,20.3,8,20.6,7.5z"></path>
		<path class="st0" d="M35.7,7.5c0.3,0.5,0.6,0.8,0.6,1c0,0.3-0.4,0.5-0.7,0.7C35.4,9,35,8.7,35,8.4C34.9,8.3,35.4,8,35.7,7.5z"></path>
		<path class="st0" d="M50.6,9.6c-0.3-0.5-0.7-0.8-0.7-1c0.1-0.3,0.5-0.5,0.8-0.7c0.2,0.3,0.6,0.5,0.6,0.8C51.3,8.9,51,9.1,50.6,9.6    z"></path>
		<path class="st0" d="M65.8,9.6c-0.4-0.4-0.8-0.7-0.8-0.9c0.1-0.3,0.4-0.6,0.7-0.8c0.2,0.2,0.6,0.4,0.7,0.7S66,9.1,65.8,9.6z"></path>
		<path class="st0" d="M80.7,9.6c-0.3-0.5-0.8-0.8-0.7-1c0.1-0.3,0.5-0.5,0.8-0.8c0.2,0.3,0.6,0.5,0.6,0.8S81,9.1,80.7,9.6z"></path>
		<path class="st0" d="M96.7,8.6c-0.5,0.3-0.7,0.7-1,0.7c-0.3,0-0.5-0.4-0.8-0.6c0.3-0.3,0.5-0.7,0.8-0.7    C95.9,7.8,96.2,8.2,96.7,8.6z"></path>
		<path class="st0" d="M-0.9,16.1c-0.5,0.3-0.8,0.7-1,0.6c-0.3,0-0.5-0.4-0.7-0.7c0.3-0.3,0.5-0.6,0.8-0.7    C-1.6,15.3-1.3,15.7-0.9,16.1z"></path>
		<path class="st0" d="M14.1,16.1c-0.5,0.3-0.8,0.6-1,0.6c-0.3,0-0.5-0.4-0.7-0.7c0.3-0.2,0.5-0.6,0.8-0.7    C13.4,15.3,13.7,15.8,14.1,16.1z"></path>
		<path class="st0" d="M28.2,15c0.3,0.5,0.7,0.8,0.7,1c0,0.3-0.4,0.5-0.6,0.8c-0.3-0.3-0.7-0.5-0.8-0.8C27.4,15.8,27.8,15.5,28.2,15    z"></path>
		<path class="st0" d="M44.2,16.1c-0.5,0.3-0.8,0.7-1,0.6c-0.3,0-0.5-0.4-0.8-0.6c0.3-0.3,0.5-0.6,0.8-0.7    C43.4,15.3,43.7,15.7,44.2,16.1z"></path>
		<path class="st0" d="M58.2,17.1c-0.4-0.4-0.8-0.8-0.8-1c0.1-0.3,0.5-0.5,0.7-0.8c0.2,0.2,0.6,0.5,0.7,0.7S58.5,16.6,58.2,17.1z"></path>
		<path class="st0" d="M74.2,16.1c-0.5,0.3-0.8,0.6-1,0.6c-0.3,0-0.5-0.4-0.7-0.7c0.3-0.2,0.5-0.6,0.8-0.7    C73.5,15.3,73.7,15.8,74.2,16.1z"></path>
		<path class="st0" d="M89.2,16.1c-0.5,0.3-0.8,0.7-1,0.6c-0.3,0-0.5-0.4-0.7-0.7c0.3-0.3,0.5-0.6,0.8-0.7    C88.4,15.3,88.7,15.7,89.2,16.1z"></path>
		<path class="st0" d="M104.1,16c-0.4,0.4-0.7,0.8-0.9,0.8c-0.3-0.1-0.6-0.4-0.9-0.6c0.3-0.3,0.5-0.6,0.8-0.7    C103.4,15.3,103.7,15.7,104.1,16z"></path>
		<path class="st0" d="M6.7,23.6c-0.5,0.3-0.8,0.6-1,0.6c-0.3,0-0.5-0.4-0.7-0.7c0.3-0.2,0.5-0.6,0.8-0.7    C5.9,22.8,6.2,23.3,6.7,23.6z"></path>
		<path class="st0" d="M19.6,23.5c0.5-0.3,0.8-0.7,1-0.7c0.3,0.1,0.5,0.5,0.8,0.8c-0.3,0.2-0.5,0.6-0.8,0.6S20.1,23.9,19.6,23.5z"></path>
		<path class="st0" d="M35.7,24.6c-0.4-0.5-0.8-0.8-0.7-1c0.1-0.3,0.5-0.5,0.7-0.8c0.2,0.2,0.6,0.5,0.6,0.7S36,24.1,35.7,24.6z"></path>
		<path class="st0" d="M50.7,24.6c-0.4-0.5-0.8-0.8-0.7-1c0.1-0.3,0.5-0.5,0.7-0.8c0.2,0.2,0.6,0.5,0.6,0.7S51,24.1,50.7,24.6z"></path>
		<path class="st0" d="M65.7,24.6c-0.4-0.5-0.8-0.8-0.7-1c0.1-0.3,0.5-0.5,0.7-0.8c0.2,0.2,0.6,0.5,0.6,0.7S66,24.1,65.7,24.6z"></path>
		<path class="st0" d="M80.7,24.6c-0.4-0.5-0.8-0.8-0.7-1c0.1-0.3,0.5-0.5,0.7-0.8c0.2,0.2,0.6,0.5,0.6,0.7S81,24.1,80.7,24.6z"></path>
		<path class="st0" d="M95.7,24.6c-0.4-0.5-0.8-0.8-0.7-1c0.1-0.3,0.5-0.5,0.7-0.8c0.2,0.2,0.6,0.5,0.6,0.7S96,24.1,95.7,24.6z"></path>
		<path class="st0" d="M-1.8,32.1c-0.4-0.5-0.8-0.8-0.7-1c0.1-0.3,0.5-0.5,0.7-0.8c0.2,0.2,0.6,0.5,0.6,0.7S-1.5,31.6-1.8,32.1z"></path>
		<path class="st0" d="M13.2,32.1c-0.4-0.5-0.8-0.8-0.7-1c0.1-0.3,0.5-0.5,0.7-0.8c0.2,0.2,0.6,0.5,0.6,0.7S13.5,31.6,13.2,32.1z"></path>
		<path class="st0" d="M28.2,32.1c-0.4-0.5-0.8-0.8-0.7-1c0.1-0.3,0.5-0.5,0.7-0.8c0.2,0.2,0.6,0.5,0.6,0.7    C28.9,31.3,28.5,31.6,28.2,32.1z"></path>
		<path class="st0" d="M44.2,31c-0.4,0.4-0.7,0.7-1,0.7c-0.3,0-0.5-0.4-0.8-0.6c0.3-0.3,0.5-0.7,0.8-0.8    C43.4,30.3,43.7,30.7,44.2,31z"></path>
		<path class="st0" d="M58.2,32.1c-0.4-0.5-0.8-0.8-0.7-1c0.1-0.3,0.5-0.5,0.7-0.8c0.2,0.2,0.6,0.5,0.6,0.7S58.5,31.6,58.2,32.1z"></path>
		<path class="st0" d="M73.2,32.1c-0.4-0.5-0.8-0.8-0.7-1c0.1-0.3,0.5-0.5,0.7-0.8c0.2,0.2,0.6,0.5,0.6,0.7    C73.9,31.3,73.5,31.6,73.2,32.1z"></path>
		<path class="st0" d="M88.2,32.1c-0.4-0.5-0.8-0.8-0.7-1c0.1-0.3,0.5-0.5,0.7-0.8c0.2,0.2,0.6,0.5,0.6,0.7    C88.9,31.3,88.5,31.6,88.2,32.1z"></path>
		<path class="st0" d="M103.2,32.1c-0.4-0.5-0.8-0.8-0.7-1c0.1-0.3,0.5-0.5,0.7-0.8c0.2,0.2,0.6,0.5,0.6,0.7S103.5,31.6,103.2,32.1z    "></path>
		<path class="st0" d="M6.7,38.6c-0.5,0.3-0.8,0.6-1,0.6c-0.3,0-0.5-0.4-0.7-0.7c0.3-0.2,0.5-0.6,0.8-0.7    C5.9,37.8,6.2,38.3,6.7,38.6z"></path>
		<path class="st0" d="M20.7,39.6c-0.4-0.4-0.8-0.7-0.8-0.9c0.1-0.3,0.4-0.5,0.7-0.8c0.2,0.2,0.6,0.4,0.7,0.7S21,39.1,20.7,39.6z"></path>
		<path class="st0" d="M35.8,39.6c-0.4-0.4-0.8-0.7-0.8-0.9c0.1-0.3,0.4-0.5,0.7-0.8c0.2,0.2,0.6,0.4,0.7,0.7S36,39.1,35.8,39.6z"></path>
		<path class="st0" d="M51.7,38.6c-0.5,0.3-0.8,0.7-1,0.6c-0.3,0-0.5-0.4-0.8-0.6c0.3-0.3,0.5-0.6,0.8-0.7    C50.9,37.8,51.2,38.2,51.7,38.6z"></path>
		<path class="st0" d="M65.7,39.6c-0.4-0.5-0.8-0.8-0.7-1c0.1-0.3,0.5-0.5,0.7-0.8c0.2,0.2,0.6,0.5,0.6,0.7S66,39.1,65.7,39.6z"></path>
		<path class="st0" d="M80.7,37.5c0.3,0.5,0.7,0.8,0.7,1c0,0.3-0.4,0.5-0.6,0.8C80.5,39,80,38.8,80,38.5    C79.9,38.3,80.3,38,80.7,37.5z"></path>
		<path class="st0" d="M95.8,37.5c0.3,0.5,0.6,0.8,0.6,1c0,0.3-0.4,0.5-0.7,0.7C95.4,39,95,38.7,95,38.4    C94.9,38.3,95.4,38,95.8,37.5z"></path>
		<path class="st0" d="M-1.8,45c0.3,0.5,0.7,0.8,0.7,1c0,0.3-0.4,0.5-0.6,0.8c-0.3-0.3-0.7-0.5-0.8-0.8C-2.6,45.8-2.2,45.5-1.8,45z"></path>
		<path class="st0" d="M13.2,47.1c-0.4-0.4-0.8-0.8-0.8-1c0.1-0.3,0.5-0.5,0.7-0.8c0.2,0.2,0.6,0.5,0.7,0.7S13.5,46.6,13.2,47.1z"></path>
		<path class="st0" d="M28.1,47.1c-0.3-0.5-0.8-0.8-0.7-1c0.1-0.3,0.5-0.5,0.8-0.8c0.2,0.3,0.6,0.5,0.6,0.8S28.5,46.6,28.1,47.1z"></path>
		<path class="st0" d="M43.1,47.1c-0.3-0.5-0.7-0.8-0.7-1c0.1-0.3,0.5-0.5,0.8-0.7c0.2,0.3,0.6,0.5,0.6,0.8    C43.8,46.4,43.5,46.6,43.1,47.1z"></path>
		<path class="st0" d="M59.2,46.1c-0.4,0.3-0.8,0.7-1,0.7c-0.3-0.1-0.5-0.5-0.8-0.8c0.3-0.2,0.5-0.6,0.8-0.6    C58.4,45.4,58.7,45.7,59.2,46.1z"></path>
		<path class="st0" d="M73.1,47.1c-0.3-0.5-0.7-0.8-0.7-1c0.1-0.3,0.5-0.5,0.8-0.7c0.2,0.3,0.6,0.5,0.6,0.8    C73.8,46.4,73.5,46.6,73.1,47.1z"></path>
		<path class="st0" d="M88.2,45c0.3,0.5,0.7,0.8,0.7,1c0,0.3-0.4,0.5-0.6,0.8c-0.3-0.3-0.7-0.5-0.8-0.8C87.4,45.8,87.8,45.5,88.2,45    z"></path>
		<path class="st0" d="M103.3,45c0.3,0.5,0.6,0.8,0.6,1c0,0.3-0.4,0.5-0.7,0.7c-0.3-0.3-0.6-0.5-0.7-0.8    C102.4,45.8,102.9,45.5,103.3,45z"></path>
		<path class="st0" d="M6.7,53.6c-0.5,0.3-0.7,0.7-1,0.7c-0.3,0-0.5-0.4-0.8-0.6c0.3-0.3,0.5-0.7,0.8-0.7    C5.9,52.8,6.2,53.2,6.7,53.6z"></path>
		<path class="st0" d="M21.7,53.6c-0.5,0.3-0.8,0.7-1,0.6c-0.3,0-0.5-0.4-0.8-0.7c0.3-0.3,0.5-0.6,0.8-0.7    C20.9,52.8,21.2,53.3,21.7,53.6z"></path>
		<path class="st0" d="M35.8,54.6c-0.4-0.4-0.8-0.7-0.8-0.9c0.1-0.3,0.4-0.6,0.7-0.8c0.2,0.2,0.6,0.4,0.7,0.7S36,54.1,35.8,54.6z"></path>
		<path class="st0" d="M50.7,52.5c0.3,0.5,0.7,0.8,0.7,1s-0.4,0.5-0.6,0.8c-0.3-0.3-0.7-0.5-0.8-0.8C49.9,53.3,50.3,53,50.7,52.5z"></path>
		<path class="st0" d="M66.7,53.5c-0.4,0.4-0.7,0.8-0.9,0.8c-0.3-0.1-0.6-0.4-0.8-0.7c0.2-0.2,0.5-0.6,0.7-0.7    C65.9,52.8,66.2,53.2,66.7,53.5z"></path>
		<path class="st0" d="M80.7,54.6c-0.4-0.5-0.8-0.8-0.7-1c0.1-0.3,0.5-0.5,0.7-0.8c0.2,0.2,0.6,0.5,0.6,0.7S81,54.1,80.7,54.6z"></path>
		<path class="st0" d="M95.7,54.6c-0.4-0.4-0.8-0.8-0.8-0.9c0.1-0.3,0.5-0.5,0.7-0.8c0.2,0.2,0.6,0.5,0.7,0.7    C96.4,53.8,96,54.1,95.7,54.6z"></path>
		<path class="st0" d="M-1.8,62.1c-0.4-0.4-0.8-0.7-0.8-0.9c0.1-0.3,0.4-0.5,0.7-0.8c0.2,0.2,0.6,0.4,0.7,0.7S-1.5,61.6-1.8,62.1z"></path>
		<path class="st0" d="M14.1,61c-0.4,0.4-0.7,0.8-0.9,0.8c-0.3-0.1-0.6-0.4-0.9-0.6c0.3-0.3,0.5-0.7,0.8-0.7    C13.4,60.3,13.7,60.7,14.1,61z"></path>
		<path class="st0" d="M28.2,62.1c-0.4-0.5-0.8-0.8-0.7-1c0.1-0.3,0.5-0.5,0.7-0.8c0.2,0.2,0.6,0.5,0.6,0.7    C28.9,61.3,28.5,61.6,28.2,62.1z"></path>
		<path class="st0" d="M43.2,62.1c-0.4-0.5-0.8-0.8-0.7-1c0.1-0.3,0.5-0.5,0.7-0.8c0.2,0.2,0.6,0.5,0.6,0.7S43.5,61.6,43.2,62.1z"></path>
		<path class="st0" d="M58.2,62.1c-0.4-0.5-0.8-0.8-0.7-1c0.1-0.3,0.5-0.5,0.7-0.8c0.2,0.2,0.6,0.5,0.6,0.7S58.5,61.6,58.2,62.1z"></path>
		<path class="st0" d="M73.2,62.1c-0.4-0.5-0.8-0.8-0.7-1c0.1-0.3,0.5-0.5,0.7-0.8c0.2,0.2,0.6,0.5,0.6,0.7    C73.9,61.3,73.5,61.6,73.2,62.1z"></path>
		<path class="st0" d="M87.2,61c0.4-0.3,0.8-0.7,1-0.7c0.3,0.1,0.5,0.5,0.8,0.8c-0.3,0.2-0.5,0.6-0.8,0.6    C87.8,61.7,87.6,61.4,87.2,61z"></path>
		<path class="st0" d="M104.2,61c-0.4,0.4-0.7,0.7-0.9,0.7c-0.3,0-0.5-0.4-0.8-0.6c0.3-0.3,0.5-0.7,0.8-0.8    C103.4,60.3,103.7,60.7,104.2,61z"></path>
		<path class="st0" d="M6.7,68.6c-0.5,0.3-0.8,0.6-1,0.6c-0.3,0-0.5-0.4-0.7-0.7c0.3-0.2,0.5-0.6,0.8-0.7    C5.9,67.8,6.2,68.3,6.7,68.6z"></path>
		<path class="st0" d="M20.6,69.6c-0.3-0.5-0.8-0.8-0.7-1c0.1-0.3,0.5-0.5,0.8-0.8c0.2,0.3,0.6,0.5,0.6,0.8S21,69.1,20.6,69.6z"></path>
		<path class="st0" d="M36.7,68.5c-0.4,0.3-0.7,0.7-1,0.7c-0.3,0-0.5-0.4-0.8-0.6c0.3-0.3,0.5-0.7,0.8-0.8    C35.9,67.8,36.2,68.2,36.7,68.5z"></path>
		<path class="st0" d="M50.7,67.5c0.3,0.5,0.7,0.8,0.7,1s-0.4,0.5-0.6,0.8c-0.3-0.3-0.7-0.5-0.8-0.8C49.9,68.3,50.3,68,50.7,67.5z"></path>
		<path class="st0" d="M64.6,68.5c0.5-0.3,0.8-0.7,1-0.7c0.3,0.1,0.5,0.5,0.8,0.8c-0.3,0.2-0.5,0.6-0.8,0.6S65.1,68.9,64.6,68.5z"></path>
		<path class="st0" d="M81.7,68.6c-0.5,0.3-0.7,0.7-1,0.7c-0.3,0-0.5-0.4-0.8-0.6c0.3-0.3,0.5-0.7,0.8-0.7    C80.9,67.8,81.2,68.2,81.7,68.6z"></path>
		<path class="st0" d="M96.7,68.5c-0.4,0.4-0.7,0.7-0.9,0.7c-0.3,0-0.5-0.4-0.8-0.6c0.3-0.3,0.5-0.7,0.8-0.8    C95.9,67.8,96.2,68.2,96.7,68.5z"></path>
		<path class="st0" d="M-0.9,76c-0.4,0.4-0.7,0.8-0.9,0.8c-0.3-0.1-0.6-0.5-0.8-0.7c0.2-0.2,0.5-0.6,0.7-0.7S-1.3,75.7-0.9,76z"></path>
		<path class="st0" d="M13.1,75c0.3,0.5,0.7,0.8,0.7,1c0,0.3-0.4,0.5-0.6,0.8c-0.3-0.3-0.7-0.5-0.8-0.8C12.4,75.8,12.8,75.5,13.1,75    z"></path>
		<path class="st0" d="M29.2,76.1c-0.5,0.3-0.8,0.6-1,0.6c-0.3,0-0.5-0.4-0.7-0.7c0.3-0.2,0.5-0.6,0.8-0.7    C28.4,75.3,28.7,75.8,29.2,76.1z"></path>
		<path class="st0" d="M43.1,77.1c-0.3-0.5-0.8-0.8-0.7-1c0.1-0.3,0.5-0.5,0.8-0.8c0.2,0.3,0.6,0.5,0.6,0.8S43.5,76.6,43.1,77.1z"></path>
		<path class="st0" d="M58.2,75c0.3,0.5,0.7,0.8,0.7,1c0,0.3-0.4,0.5-0.6,0.8c-0.3-0.3-0.7-0.5-0.8-0.8C57.4,75.8,57.8,75.5,58.2,75    z"></path>
		<path class="st0" d="M73.2,75c0.3,0.5,0.7,0.8,0.7,1c0,0.3-0.4,0.5-0.6,0.8c-0.3-0.3-0.7-0.5-0.8-0.8C72.4,75.8,72.8,75.5,73.2,75    z"></path>
		<path class="st0" d="M88.2,77.1c-0.4-0.5-0.8-0.8-0.7-1c0.1-0.3,0.5-0.5,0.7-0.8c0.2,0.2,0.6,0.5,0.6,0.7    C88.9,76.3,88.5,76.6,88.2,77.1z"></path>
		<path class="st0" d="M103.2,75c0.3,0.5,0.7,0.8,0.7,1c0,0.3-0.4,0.5-0.6,0.8c-0.3-0.3-0.7-0.5-0.8-0.8    C102.4,75.8,102.8,75.5,103.2,75z"></path>
		<path class="st0" d="M6.7,83.5c-0.4,0.4-0.7,0.7-1,0.7c-0.3,0-0.5-0.4-0.8-0.6c0.3-0.3,0.5-0.7,0.8-0.8    C5.9,82.8,6.2,83.2,6.7,83.5z"></path>
		<path class="st0" d="M21.7,83.6c-0.5,0.3-0.8,0.6-1,0.6c-0.3,0-0.5-0.4-0.7-0.7c0.3-0.2,0.5-0.6,0.8-0.7    C20.9,82.8,21.2,83.3,21.7,83.6z"></path>
		<path class="st0" d="M36.7,83.6c-0.5,0.3-0.8,0.7-1,0.6c-0.3,0-0.5-0.4-0.7-0.7c0.3-0.3,0.5-0.6,0.8-0.7    C35.9,82.8,36.2,83.3,36.7,83.6z"></path>
		<path class="st0" d="M51.7,83.6c-0.5,0.3-0.8,0.7-1,0.6c-0.3,0-0.5-0.4-0.8-0.7c0.3-0.3,0.5-0.6,0.8-0.7    C50.9,82.8,51.2,83.2,51.7,83.6z"></path>
		<path class="st0" d="M65.7,84.6c-0.4-0.5-0.8-0.8-0.7-1c0.1-0.3,0.5-0.5,0.7-0.8c0.2,0.2,0.6,0.5,0.6,0.7S66,84.1,65.7,84.6z"></path>
		<path class="st0" d="M80.7,84.6c-0.4-0.5-0.8-0.8-0.7-1c0.1-0.3,0.5-0.5,0.7-0.8c0.2,0.2,0.6,0.5,0.6,0.7S81,84.1,80.7,84.6z"></path>
		<path class="st0" d="M95.7,84.6c-0.4-0.5-0.8-0.8-0.7-1c0.1-0.3,0.5-0.5,0.7-0.8c0.2,0.2,0.6,0.5,0.6,0.7S96,84.1,95.7,84.6z"></path>
		<path class="st0" d="M-0.9,91c-0.4,0.3-0.8,0.8-1,0.7c-0.3-0.1-0.5-0.5-0.8-0.7c0.3-0.2,0.5-0.6,0.8-0.6    C-1.6,90.4-1.3,90.7-0.9,91z"></path>
		<path class="st0" d="M13.2,90c0.3,0.5,0.7,0.8,0.7,1c0,0.3-0.4,0.5-0.6,0.8c-0.3-0.3-0.7-0.5-0.8-0.8C12.4,90.8,12.8,90.5,13.2,90    z"></path>
		<path class="st0" d="M29.2,91.1c-0.5,0.3-0.8,0.7-1,0.6c-0.3-0.1-0.5-0.5-0.8-0.8c0.3-0.2,0.5-0.6,0.8-0.6    C28.5,90.4,28.7,90.8,29.2,91.1z"></path>
		<path class="st0" d="M44.2,91.1c-0.5,0.3-0.8,0.7-1,0.6c-0.3,0-0.5-0.4-0.8-0.7c0.3-0.3,0.5-0.6,0.8-0.7    C43.4,90.3,43.7,90.8,44.2,91.1z"></path>
		<path class="st0" d="M58.2,90c0.3,0.5,0.7,0.8,0.7,1c0,0.3-0.4,0.5-0.6,0.8c-0.3-0.3-0.7-0.5-0.8-0.8C57.4,90.8,57.8,90.5,58.2,90    z"></path>
		<path class="st0" d="M73.3,92.1c-0.4-0.4-0.8-0.7-0.8-0.9c0.1-0.3,0.4-0.5,0.7-0.8c0.2,0.2,0.6,0.4,0.7,0.7S73.5,91.6,73.3,92.1z"></path>
		<path class="st0" d="M88.3,92.1c-0.4-0.4-0.8-0.7-0.8-0.9c0.1-0.3,0.4-0.5,0.7-0.8c0.2,0.2,0.6,0.4,0.7,0.7S88.5,91.6,88.3,92.1z"></path>
		<path class="st0" d="M103.2,90c0.3,0.5,0.7,0.8,0.7,1c0,0.3-0.4,0.5-0.6,0.8c-0.3-0.3-0.7-0.5-0.8-0.8    C102.4,90.8,102.8,90.5,103.2,90z"></path>
		<path class="st0" d="M6.7,98.6c-0.5,0.3-0.8,0.6-1,0.6c-0.3,0-0.5-0.4-0.7-0.7c0.3-0.2,0.5-0.6,0.8-0.7    C5.9,97.8,6.2,98.3,6.7,98.6z"></path>
		<path class="st0" d="M20.7,97.5c0.3,0.5,0.6,0.8,0.6,1c0,0.3-0.4,0.5-0.7,0.7C20.4,99,20,98.8,20,98.4    C19.9,98.3,20.4,98,20.7,97.5z"></path>
		<path class="st0" d="M36.7,98.6c-0.5,0.3-0.8,0.7-1,0.6c-0.3,0-0.5-0.4-0.8-0.6c0.3-0.3,0.5-0.6,0.8-0.7    C35.9,97.8,36.2,98.3,36.7,98.6z"></path>
		<path class="st0" d="M50.7,97.5c0.3,0.5,0.7,0.8,0.7,1c0,0.3-0.4,0.5-0.6,0.8C50.4,99,50,98.8,50,98.5    C49.9,98.3,50.3,98,50.7,97.5z"></path>
		<path class="st0" d="M66.7,98.6c-0.5,0.3-0.8,0.7-1,0.6c-0.3,0-0.5-0.4-0.7-0.7c0.3-0.2,0.5-0.6,0.8-0.7    C65.9,97.8,66.2,98.3,66.7,98.6z"></path>
		<path class="st0" d="M79.6,98.5c0.5-0.3,0.8-0.7,1-0.7c0.3,0.1,0.5,0.5,0.8,0.8c-0.3,0.2-0.5,0.6-0.8,0.6S80.1,98.9,79.6,98.5z"></path>
		<path class="st0" d="M96.7,98.6c-0.5,0.3-0.8,0.7-1,0.6c-0.3,0-0.5-0.4-0.8-0.7c0.3-0.3,0.5-0.6,0.8-0.7    C95.9,97.8,96.2,98.3,96.7,98.6z"></path>
		<path class="st0" d="M-0.9,106.1c-0.5,0.3-0.8,0.7-1,0.6c-0.3,0-0.5-0.4-0.7-0.7c0.3-0.2,0.5-0.6,0.8-0.7    C-1.6,105.3-1.3,105.8-0.9,106.1z"></path>
		<path class="st0" d="M14.2,106.1c-0.5,0.3-0.8,0.7-1,0.6c-0.3,0-0.5-0.4-0.7-0.7c0.3-0.2,0.5-0.6,0.8-0.7    C13.4,105.3,13.7,105.8,14.2,106.1z"></path>
		<path class="st0" d="M29.2,106.1c-0.5,0.3-0.8,0.7-1,0.6c-0.3-0.1-0.5-0.5-0.8-0.8c0.3-0.2,0.5-0.6,0.8-0.6    C28.5,105.4,28.7,105.8,29.2,106.1z"></path>
		<path class="st0" d="M43.2,107.1c-0.4-0.5-0.8-0.8-0.7-1c0.1-0.3,0.5-0.5,0.7-0.8c0.2,0.2,0.6,0.5,0.6,0.7S43.5,106.6,43.2,107.1z    "></path>
		<path class="st0" d="M59.2,106.1c-0.5,0.3-0.8,0.7-1,0.6c-0.3-0.1-0.5-0.5-0.8-0.8c0.3-0.2,0.5-0.6,0.8-0.6    C58.5,105.4,58.7,105.8,59.2,106.1z"></path>
		<path class="st0" d="M73.2,107.1c-0.3-0.5-0.8-0.8-0.7-1c0.1-0.3,0.5-0.5,0.8-0.8c0.2,0.3,0.6,0.5,0.6,0.8S73.5,106.6,73.2,107.1z    "></path>
		<path class="st0" d="M89.2,106.1c-0.5,0.3-0.8,0.7-1,0.6c-0.3,0-0.5-0.4-0.7-0.7c0.3-0.3,0.5-0.6,0.8-0.7    C88.4,105.3,88.7,105.8,89.2,106.1z"></path>
		<path class="st0" d="M104.2,106c-0.4,0.4-0.7,0.7-1,0.7c-0.3,0-0.5-0.4-0.8-0.6c0.3-0.3,0.5-0.7,0.8-0.8    C103.4,105.3,103.7,105.7,104.2,106z"></path>
		<path class="st0" d="M6.7,113.7c-0.5,0.3-0.8,0.6-1,0.6c-0.3,0-0.5-0.4-0.7-0.7c0.3-0.2,0.5-0.6,0.8-0.7    C5.9,112.8,6.2,113.3,6.7,113.7z"></path>
		<path class="st0" d="M21.7,113.6c-0.5,0.3-0.8,0.7-1,0.6c-0.3,0-0.5-0.4-0.8-0.6c0.3-0.3,0.5-0.6,0.8-0.7    C20.9,112.8,21.2,113.3,21.7,113.6z"></path>
		<path class="st0" d="M36.7,113.5c-0.4,0.3-0.7,0.7-1,0.7c-0.3,0-0.5-0.4-0.8-0.6c0.3-0.3,0.5-0.7,0.8-0.8    C35.9,112.8,36.2,113.2,36.7,113.5z"></path>
		<path class="st0" d="M51.7,113.6c-0.5,0.3-0.8,0.7-1,0.6c-0.3,0-0.5-0.4-0.7-0.7c0.3-0.3,0.5-0.6,0.8-0.7    C50.9,112.8,51.2,113.3,51.7,113.6z"></path>
		<path class="st0" d="M66.7,113.5c-0.4,0.4-0.7,0.8-0.9,0.8c-0.3-0.1-0.6-0.4-0.8-0.7c0.2-0.2,0.5-0.6,0.7-0.7    C65.9,112.8,66.2,113.2,66.7,113.5z"></path>
		<path class="st0" d="M80.7,114.6c-0.3-0.5-0.8-0.8-0.7-1c0.1-0.3,0.5-0.5,0.8-0.8c0.2,0.3,0.6,0.5,0.6,0.8S81,114.1,80.7,114.6z"></path>
		<path class="st0" d="M96.7,113.5c-0.4,0.4-0.7,0.7-0.9,0.7c-0.3,0-0.5-0.4-0.8-0.6c0.3-0.3,0.5-0.7,0.8-0.8    C95.9,112.8,96.2,113.2,96.7,113.5z"></path>
	</g>
	<path class="st1" d="M1622.3,388.2c-0.5,6.4-1,12.9-1.8,19.4c-5.6,49.1-20.3,98.3-55.8,136.4c-4.4,4.8-9.2,9.4-15.1,12.6   c-15.4,8.5-38.1,4.1-55.3,4.1h-159.6c-19.9,0-48.3,5.7-64.5-6.1c-12.2-8.8-23.3-18.9-33.3-30.2c-4.5-5.1-8.7-10.5-12.6-16   c-20.2-28.6-32.1-61.8-37.6-97.2c-5.9-37.8-4.6-76.1,11.2-111.9c10.8-24.3,27.8-52.8,54.7-64.3c15.4-6.6,33.2-8.4,50-8.6   c21.7-0.3,43.9-1.4,62.6-12.6c21.1-12.6,36.6-31.8,57.5-44.9c21-13.2,45.5-21.2,71.2-17.6c35.6,5.1,63.8,30.9,83.1,59.1   c29.6,43.2,44.2,94.2,46,145.5C1623.3,366.7,1623.1,377.5,1622.3,388.2z"></path>
	<g transform="translate(1150 415.45)">
		<path class="st2" d="M82.9,143.6c21.1-14.1,26.3-40.8,25.9-64.9c-0.1-4,0.4-8.3-1.4-11.8s-6.4-6-10-4.4c-3,1.4-4.4,4.8-6.2,7.7    c-2.3,3.8-5.7,6.9-9.7,8.9c-2.6,1.3-5.8,2.1-8.4,0.6c-3.5-2-3.8-6.8-3.7-10.8c0.2-7.4,0.3-14.9,0.5-22.3c0.1-4,0.2-8.1-1-11.9    s-3.9-7.4-7.8-8.5s-8.6,1-9.5,4.9c-0.4,1.6-0.1,3.3-0.2,5s-1,3.5-2.6,3.9c-1.6,0.4-3.2-0.7-4.4-1.9c-4.1-4.1-6.9-9.3-9.4-14.5    s-5.1-10.5-8.8-15s-8.9-8-14.7-8.4s-12,3-13.6,8.6C-3.8,14.3-0.5,20,3,24.7c5.3,6.9,11.5,12.9,18.5,18c1.3,0.9,2.6,1.9,3.1,3.4    c0.8,2.7-1.8,5.3-4.4,6.1c-3,0.9-6.3,0.6-9.5,0.9s-6.6,1.6-7.8,4.6C1.2,61.7,4.6,66,8,68.9c6.8,5.7,14.4,10.3,22.7,13.4    c3,1.1,6.1,2.1,8.5,4.2s3.8,5.7,2.3,8.5s-5.2,3.6-8.3,3s-5.9-2.3-8.8-3.5c-5.5-2.2-12.7-1.9-16.4,2.8c-2.4,3.1-2.7,7.4-1.5,11.2    s3.5,7,6,10c8.8,10.5,20,18.9,32.9,23.6S70,148,82.9,143.6"></path>
		<g transform="translate(6.336 3.266)">
			<path class="st3" d="M70.4,125.1C66.6,112,62,99,56.6,86.4c-1.4-3.4-2.8-6.7-4.1-10c-1.4-3.3-2.7-6.5-4.2-9.6     c-2.9-5.9-6.2-11.7-9.8-17.3c-3.4-5.3-6.8-10.3-10-14.9s-6.3-8.8-9.3-12.6C14.4,16.1,9.2,10.6,3.7,5.4c-2-1.8-3.5-3.2-4.6-4.1     l-1.2-1C-2.4,0.1-2.6,0-2.6,0s0.1,0.1,0.4,0.4L-1,1.5C0,2.4,1.6,3.8,3.5,5.6C9,10.8,14.1,16.4,18.8,22.3c3,3.7,6,8,9.2,12.6     s6.6,9.6,10,14.9c3.6,5.6,6.8,11.3,9.7,17.2c1.5,3.1,2.9,6.3,4.2,9.6s2.7,6.6,4.1,10c5.3,12.6,10,25.5,13.8,38.7"></path>
		</g>
		<g transform="translate(56.982 26.121)">
			<path class="st3" d="M-2.6,43.9c0.2-0.6,0.3-1.1,0.4-1.7c0.2-1.1,0.5-2.7,0.8-4.7c0.6-4,1.3-9.5,2-15.6S2.2,10.3,2.9,6.4     c0.3-2,0.6-3.6,0.9-4.7C3.9,1.2,4,0.6,4,0C3.8,0.5,3.6,1.1,3.5,1.7C3.2,2.8,2.8,4.4,2.4,6.3C1.6,10.3,0.8,15.8,0,21.8     c-0.7,6-1.4,11.5-1.9,15.6c-0.2,1.9-0.5,3.5-0.6,4.7C-2.5,42.7-2.6,43.3-2.6,43.9z"></path>
		</g>
		<g transform="translate(5.081 59.595)">
			<path class="st3" d="M-2.6,0c0.2,0.1,0.4,0.1,0.5,0.1l1.5,0.2c1.3,0.1,3.3,0.3,5.6,0.6c4.8,0.6,11.3,1.6,18.5,3S37.2,7,41.8,8.3     c2.3,0.6,4.2,1.2,5.5,1.6l1.5,0.4c0,0.2,0.1,0.3,0.2,0.3s0.3-0.1,0.3-0.2c0-0.2-0.1-0.3-0.2-0.3c-0.1,0-0.2,0-0.3,0.1l-1.4-0.5     c-1.3-0.5-3.1-1.1-5.4-1.8c-4.6-1.4-11-3.1-18.2-4.5S10,0.9,5.2,0.5C2.8,0.2,0.8,0.1-0.5,0l-1.5,0C-2.2,0-2.4,0-2.6,0z"></path>
		</g>
		<g transform="translate(78.782 62.205)">
			<path class="st3" d="M-2.6,65.2c0.1-0.2,0.3-0.4,0.4-0.6l0.9-1.9c0.8-1.6,1.9-4,3.2-6.9c2.6-5.9,5.9-14,9.5-23.1     s6.8-17.3,9.3-23.2l3-7c0.3-0.8,0.6-1.4,0.8-1.9c0.1-0.2,0.2-0.4,0.2-0.7c-0.1,0.2-0.3,0.4-0.4,0.6c-0.2,0.5-0.5,1.1-0.9,1.8     c-0.8,1.6-1.9,4-3.2,6.9c-2.6,5.9-5.9,14-9.5,23.1S3.9,49.8,1.4,55.7c-1.2,2.9-2.2,5.2-3,7c-0.3,0.8-0.6,1.4-0.8,1.9     C-2.5,64.8-2.5,65-2.6,65.2z"></path>
		</g>
		<g transform="translate(9.944 104.397)">
			<path class="st3" d="M-2.6,0c0.2,0.1,0.4,0.2,0.7,0.3l2,0.7l7.4,2.5c6.2,2.1,14.8,5.1,24.2,8.4S49.8,18,56,20     c3.1,1,5.7,1.8,7.4,2.3l2,0.6C65.7,23,66,23,66.2,23c-0.2-0.1-0.4-0.2-0.7-0.3l-2-0.7l-7.4-2.5c-6.2-2.1-14.8-5.1-24.3-8.4     S13.9,5,7.6,3C4.5,2,1.9,1.2,0.2,0.7l-2-0.6C-2.1,0.1-2.4,0-2.6,0z"></path>
		</g>
	</g>
	<g transform="translate(1536.216 404.254)">
		<g transform="translate(0 0)">
			
				<rect x="18.5" y="-0.3" transform="matrix(0.3659 -0.9306 0.9306 0.3659 -13.057 79.9347)" class="st2" width="67.3" height="99.8"></rect>
		</g>
		<g transform="translate(24.609 0.869)">
			<path class="st3" d="M86.3,36.5c-0.4,0.2-0.8,0.4-1.2,0.5l-3.5,1.2l-12.8,4.4L26.1,57l-0.4,0.1l-0.2-0.3l-0.4-0.8     C16.3,40.7,8.4,26.7,2.5,16.5c-2.8-5-5.1-9.1-6.8-12L-6,1.2C-6.3,0.8-6.4,0.4-6.6,0c0.3,0.3,0.5,0.7,0.7,1.1l1.9,3.2l7,11.9     l22.8,39.4c0.2,0.3,0.3,0.5,0.4,0.8l-0.5-0.2l42.7-14.1l12.9-4.2l3.5-1.1C85.4,36.7,85.8,36.6,86.3,36.5z"></path>
		</g>
		<g transform="translate(0 38.19)">
			<path class="st3" d="M-6.6,25.3c-0.1-0.2,10.2-6.1,23.1-13S40-0.2,40.1,0S29.9,6.1,17,13S-6.5,25.5-6.6,25.3z"></path>
		</g>
		<g transform="translate(77.852 49.55)">
			<path class="st3" d="M-6.6,0c0.2-0.1,3.8,11.2,7.9,25.1s7.3,25.3,7.1,25.3S4.6,39.3,0.5,25.3S-6.8,0.1-6.6,0z"></path>
		</g>
	</g>
	<g transform="translate(1575.164 323.283)">
		<g transform="translate(0 0)">
			
				<rect x="2.9" y="10.2" transform="matrix(0.9168 -0.3993 0.3993 0.9168 -9.3942 15.6192)" class="st4" width="59.7" height="40.2"></rect>
		</g>
		<g transform="translate(0.368 0.367)">
			<path class="st3" d="M52.1,0c-0.1,0.2-0.2,0.5-0.3,0.7c-0.2,0.5-0.6,1.2-0.9,2L47.3,10c-3.1,6.2-7.3,14.7-11.9,24.1l-0.1,0.2     l-0.2-0.1l-0.5-0.1L8.2,27l-8-2.2l-2.2-0.6c-0.3-0.1-0.5-0.1-0.7-0.3c0.3,0,0.5,0.1,0.8,0.2l2.2,0.5l8,2.1l26.3,7l0.5,0.1     l-0.3,0.1c4.7-9.4,9-17.8,12.1-24l3.7-7.2c0.4-0.8,0.8-1.5,1-2C51.8,0.4,52,0.2,52.1,0z"></path>
		</g>
		<g transform="translate(16.424 30.649)">
			<path class="st3" d="M-2.6,30.4c-0.1,0,1.8-6.9,4.3-15.3S6.3,0,6.5,0S4.7,6.9,2.2,15.3S-2.4,30.5-2.6,30.4z"></path>
		</g>
		<g transform="translate(43.483 22.261)">
			<path class="st3" d="M-2.6,0c0.1-0.1,6.3,3.1,14,7.3s13.8,7.6,13.7,7.7s-6.3-3.1-14-7.3S-2.7,0.1-2.6,0z"></path>
		</g>
	</g>
	<g transform="translate(1216.936 334.091)">
		<g transform="translate(0)">
			<g transform="translate(14.056)">
				<path class="st4" d="M12,0h307c8,0,14.6,6.5,14.6,14.6v193.1c0,8-6.5,14.6-14.6,14.6H12c-8,0-14.6-6.5-14.6-14.6V14.6      C-2.6,6.5,3.9,0,12,0z"></path>
			</g>
			<g transform="translate(0 205.829)">
				<path class="st5" d="M-2.6,0h364.2l0,0v1.7c0,9.8-8,17.8-17.8,17.8H15.2c-9.8,0-17.8-8-17.8-17.8c0,0,0,0,0,0V0L-2.6,0z"></path>
			</g>
			<g transform="translate(23.078 8.831)">
				<rect x="-2.6" y="0" class="st6" width="317.1" height="187.7"></rect>
			</g>
			<g transform="translate(148.979 205.829)">
				<path class="st6" d="M-2.6,0l4.5,7.2h63.6L69.7,0H-2.6z"></path>
			</g>
		</g>
		<g transform="translate(29.61 15.185)">
			<path class="st7" d="M0.7,0h298.2c1.8,0,3.3,1.5,3.3,3.3c0,0,0,0,0,0v174.2c0,1.8-1.5,3.3-3.3,3.3l0,0H0.7     c-1.8,0-3.3-1.5-3.3-3.3V3.3C-2.6,1.5-1.1,0,0.7,0C0.7,0,0.7,0,0.7,0z"></path>
			<g transform="translate(0 13.243)">
				<rect x="-2.6" y="0" class="st8" width="304.7" height="167.5"></rect>
			</g>
			<g transform="translate(20.125 4.547)">
				<path class="st6" d="M2.3,2.4c0,1.3-1.1,2.4-2.4,2.4c-1.3,0-2.4-1.1-2.4-2.4C-2.6,1.1-1.5,0-0.2,0S2.3,1.1,2.3,2.4      C2.3,2.4,2.3,2.4,2.3,2.4z"></path>
			</g>
			<g transform="translate(5.375 4.547)">
				<path class="st6" d="M2.3,2.4c0,1.3-1.1,2.4-2.4,2.4c-1.3,0-2.4-1.1-2.4-2.4C-2.6,1.1-1.5,0-0.2,0c0,0,0,0,0,0      C1.2,0,2.3,1.1,2.3,2.4z"></path>
			</g>
			<g transform="translate(12.455 4.547)">
				<path class="st6" d="M2.3,2.4c0,1.3-1.1,2.4-2.4,2.4c-1.3,0-2.4-1.1-2.4-2.4C-2.6,1.1-1.5,0-0.2,0c0,0,0,0,0,0      C1.2,0,2.3,1.1,2.3,2.4C2.3,2.4,2.3,2.4,2.3,2.4z"></path>
			</g>
		</g>
		<g transform="translate(14.056 205.611)">
			<path class="st6" d="M330.6,0.2c0,0.1-74.6,0.2-166.6,0.2C72,0.4-2.6,0.3-2.6,0.2S72,0,164,0C256,0,330.6,0.1,330.6,0.2z"></path>
		</g>
	</g>
	<g transform="translate(1261.322 449.249)">
		<g transform="translate(0)">
			<g transform="translate(0.407 0.297)">
				
					<rect x="-0.4" y="3.4" transform="matrix(0.9956 -9.395998e-02 9.395998e-02 0.9956 -2.4812 3.5324)" class="st9" width="73.4" height="49.5"></rect>
			</g>
			<path class="st6" d="M75.5,49.5c0,0-0.1-0.3-0.1-0.9c-0.1-0.6-0.2-1.5-0.3-2.6c-0.2-2.3-0.6-5.7-1-9.9     c-0.8-8.6-2.1-20.8-3.5-35.8l0.3,0.2l-73,7c-0.1,0.1,0.6-0.7,0.3-0.4v0v0v0.1l0,0.1l0,0.2l0,0.4l0.1,0.8l0.2,1.6     c0.1,1.1,0.2,2.2,0.3,3.3c0.2,2.2,0.4,4.3,0.6,6.5c0.4,4.3,0.8,8.5,1.2,12.6C1.3,41,2.1,48.9,2.8,56.4l-0.3-0.3L55,51.3L70.1,50     l4-0.3l1-0.1C75.3,49.5,75.4,49.5,75.5,49.5c-0.1,0-0.2,0-0.3,0l-1,0.1l-4,0.4l-15,1.5L2.5,56.8l-0.3,0l0-0.3     C1.4,49,0.7,41.1-0.1,32.8c-0.4-4.1-0.8-8.3-1.2-12.6c-0.2-2.1-0.4-4.3-0.6-6.4c-0.1-1.1-0.2-2.2-0.3-3.3l-0.2-1.6l-0.1-0.8     l0-0.4l0-0.2l0-0.1l0-0.1v0v0c-0.3,0.3,0.4-0.5,0.3-0.4L70.8,0l0.3,0l0,0.3c1.4,15,2.5,27.4,3.3,36c0.4,4.2,0.7,7.6,0.9,9.9     c0.1,1.1,0.2,2,0.2,2.6C75.5,49.3,75.5,49.5,75.5,49.5z"></path>
		</g>
		<g transform="translate(0.406 0.296)">
			<path class="st6" d="M70.5,0c-0.2,0.3-0.4,0.5-0.6,0.7l-1.7,2l-6.4,7.3c-5.5,6.2-13.1,14.7-21.6,24.2l-0.2,0.2l-0.2-0.2L37.7,33     L9.1,14.7L0.5,9.1l-2.3-1.6c-0.3-0.2-0.5-0.4-0.8-0.6C-2.3,7.1-2,7.2-1.7,7.4l2.4,1.5l8.7,5.4l28.7,18.2l1.9,1.2l-0.4,0.1     l21.8-24L68,2.6l1.8-1.9C70,0.4,70.2,0.2,70.5,0z"></path>
		</g>
	</g>
	<g transform="translate(1479.077 378.174)">
		<g transform="translate(0)">
			<g transform="translate(0.282 0.242)">
				
					<rect x="10.1" y="-2.1" transform="matrix(0.272 -0.9623 0.9623 0.272 -3.2892 45.225)" class="st9" width="36.3" height="53.8"></rect>
			</g>
			<path class="st6" d="M49.5,49.8c0,0,0.1-0.2,0.2-0.7l0.5-1.9c0.5-1.6,1.1-4,1.9-7.1c1.7-6.1,4.1-14.8,7.1-25.4l0.1,0.2L7.5,0.5     c-0.1,0,0.6-0.3,0.3-0.2v0l0,0l0,0l0,0.1l0,0.1L7.6,0.9L7.5,1.5L7.1,2.6L6.5,4.9C6,6.5,5.6,8,5.2,9.5c-0.9,3-1.7,6-2.5,8.9     l-4.8,16.8l-0.2-0.3L35,45.6l10.7,3.1l2.8,0.8l0.7,0.2C49.3,49.7,49.4,49.8,49.5,49.8c-0.1,0-0.2,0-0.2-0.1l-0.7-0.2l-2.8-0.8     l-10.6-2.9L-2.4,35.4l-0.2-0.1l0.1-0.2c1.5-5.3,3.1-10.9,4.7-16.8c0.8-2.9,1.7-5.9,2.5-8.9c0.4-1.5,0.9-3,1.3-4.6     C6.2,4,6.4,3.3,6.7,2.5L7,1.3l0.2-0.6l0.1-0.3l0-0.1l0-0.1l0,0v0v0C7,0.3,7.7,0,7.6,0l51.8,14.7l0.2,0.1l-0.1,0.2     c-3.1,10.6-5.6,19.4-7.3,25.5c-0.9,3-1.6,5.4-2,7c-0.2,0.8-0.4,1.4-0.5,1.8C49.6,49.6,49.5,49.8,49.5,49.8z"></path>
		</g>
		<g transform="translate(10.153 0.242)">
			<path class="st6" d="M49.2,14.6c-0.2,0.1-0.4,0.3-0.6,0.3l-1.7,0.9l-6.3,3.3L19.4,30l-0.2,0.1l-0.1-0.2l-1-1.4     C12.3,20.7,7.2,13.6,3.4,8.4L-1,2.3l-1.2-1.7C-2.4,0.4-2.5,0.2-2.6,0c0.2,0.2,0.3,0.4,0.5,0.5l1.3,1.6l4.5,6l14.8,20.1l1,1.4     l-0.3-0.1l21.3-10.7l6.4-3.2l1.8-0.8C48.8,14.8,49,14.7,49.2,14.6z"></path>
		</g>
	</g>
	<g transform="translate(1266.218 369.618)">
		<path class="st2" d="M-1.1,0.5c0,0,3.6-2.9,9.1,5.8c2.9,4.4,5.5,9,7.8,13.8c0,0,1.4,1.8,2.6,0.4s2.6-5.1,4.9-4.7    c2.4,0.4,3.4,3,3.3,6.8s0.1,12.3,0.1,13s0.5,1.8,1.5,1s6.3-8,9.5-5.3s1.3,13.4,1.1,14.6s0.1,1.6,0.6,1.9s2.1-2.4,3.7-4.3    s3.8-4,5.5-2.3s3,9.5-3.2,22.8l-3.3,6l-6.9,0.3c-14.7-0.3-21.1-4.8-21.9-7.1s2-3.4,4.5-4s5.5-0.8,5.5-1.4s-0.3-1.1-1.4-1.4    S10.6,53,9.6,48.9s7.8-5.7,8.9-6.2s0.4-1.4-0.2-1.8s-8.2-4.2-11.7-5.8s-5.3-3.6-4.7-6c0.6-2.2,4.6-1.9,6.4-2.4s0.8-2.5,0.8-2.5    c-3.3-4.1-6.3-8.5-9-13.1C-5.3,2.4-1,0.4-1.1,0.5"></path>
		<g transform="translate(6.51 8.229)">
			<path class="st5" d="M-2.6,0c0,0,0,0.1,0.1,0.2l0.3,0.5l1.3,2.1c1.1,1.8,2.7,4.4,4.7,7.6c4,6.4,9.5,15.3,15.7,25     s11.8,18.6,15.8,25l4.7,7.6c0.6,0.9,1,1.6,1.3,2.1l0.3,0.5c0.1,0.1,0.1,0.2,0.1,0.2s0-0.1-0.1-0.2l-0.3-0.5L40.1,68     c-1.1-1.8-2.7-4.4-4.7-7.6c-4-6.4-9.5-15.3-15.7-25S7.9,16.8,3.9,10.4c-2-3.2-3.6-5.8-4.7-7.6c-0.6-0.9-1-1.6-1.3-2.1l-0.3-0.5     C-2.6,0.1-2.6,0-2.6,0z"></path>
		</g>
		<g transform="translate(22.292 21.054)">
			<path class="st5" d="M-0.7,0c-0.1,0.2-0.1,0.3-0.1,0.5C-0.9,0.8-1,1.2-1.1,1.8c-0.2,1.1-0.4,2.7-0.7,4.4C-2,7.9-2.2,9.4-2.4,10.6     c-0.1,0.5-0.1,1-0.2,1.3c0,0.2,0,0.3,0,0.5c0.1-0.2,0.1-0.3,0.1-0.5c0.1-0.3,0.2-0.8,0.3-1.3C-2,9.5-1.8,7.9-1.6,6.2     C-1.3,4.5-1.1,3-0.9,1.8c0.1-0.5,0.1-1,0.2-1.3C-0.7,0.3-0.7,0.2-0.7,0z"></path>
		</g>
		<g transform="translate(7.45 31)">
			<path class="st5" d="M11.6,2.6c0-0.1-3.2-0.7-7.1-1.4S-2.6-0.1-2.6,0s3.2,0.7,7.1,1.4S11.6,2.7,11.6,2.6z"></path>
		</g>
		<g transform="translate(19.067 48.174)">
			<path class="st5" d="M10.2,0C10,0,9.8,0,9.7,0L8.3,0.2C7.2,0.3,5.6,0.4,3.8,0.5S0.4,0.7-0.7,0.7l-1.4,0c-0.2,0-0.3,0-0.5,0     c0.2,0,0.3,0.1,0.5,0.1c0.3,0,0.8,0,1.4,0c1.2,0,2.8,0,4.5-0.1s3.4-0.3,4.5-0.4c0.6-0.1,1-0.1,1.4-0.2C9.9,0.1,10,0.1,10.2,0z"></path>
		</g>
		<g transform="translate(31.726 37.29)">
			<path class="st5" d="M2.3,0C2.2,0.1,2.1,0.3,2.1,0.4C1.9,0.7,1.7,1.1,1.5,1.5C1,2.5,0.4,3.9-0.3,5.3S-1.5,8.2-2,9.2     c-0.2,0.5-0.4,0.9-0.5,1.2c-0.1,0.1-0.1,0.3-0.2,0.4c0.1-0.1,0.2-0.3,0.2-0.4c0.1-0.3,0.3-0.7,0.6-1.1c0.5-1,1.1-2.3,1.8-3.8     s1.3-2.8,1.7-3.8C1.9,1.1,2,0.7,2.1,0.4C2.2,0.3,2.3,0.2,2.3,0z"></path>
		</g>
		<g transform="translate(40.822 48.983)">
			<path class="st5" d="M3.8,0C3.7,0.2,3.6,0.3,3.5,0.5L2.8,2c-0.6,1.2-1.4,3-2.3,4.9s-1.7,3.6-2.2,4.9c-0.3,0.6-0.5,1.1-0.7,1.5     c-0.1,0.2-0.2,0.4-0.2,0.6c0.1-0.2,0.2-0.3,0.3-0.5l0.7-1.5c0.6-1.2,1.4-3,2.3-4.9s1.7-3.6,2.2-4.9l0.7-1.5     C3.7,0.4,3.7,0.2,3.8,0z"></path>
		</g>
		<g transform="translate(24.643 62.366)">
			<path class="st5" d="M13.6,0c-0.2,0-0.4,0-0.6,0l-1.7,0.1C9.8,0.2,7.8,0.3,5.5,0.4S1.3,0.5-0.2,0.5H-2c0-0.2-0.2-0.3-0.4-0.3     c-0.2,0-0.3,0.2-0.3,0.4c0,0.2,0.2,0.3,0.4,0.3C-2.1,0.8-2,0.7-2,0.6c0.4,0,1,0.1,1.7,0.1c1.5,0,3.5,0.1,5.8,0s4.3-0.2,5.7-0.3     C12,0.2,12.6,0.2,13,0.1C13.2,0.1,13.4,0.1,13.6,0z"></path>
		</g>
	</g>
	<g transform="translate(1492.441 437.774)">
		<g transform="translate(19.382)">
			<path class="st2" d="M18.9,0.8c-2.6-1.1-5.6-1.1-8.2,0.1C8.1,2,5.9,3.7,4,5.9c-3.6,4.1-5.6,10-6.6,15.3c6,0.7,11.8-3.1,14.7-5.2     C16.6,12.6,22.7,3.8,18.9,0.8"></path>
		</g>
		<g transform="translate(2.952 5.259)">
			<path class="st2" d="M3,18.1c2.9-1.4,4.8-4.3,4.9-7.5c0.1-3.2-1-6.3-3.2-8.6C3.9,0.8,2.5,0.1,1,0c-1.4,0.2-2.6,1-3.1,2.3     c-0.5,1.3-0.7,2.6-0.5,4C-2.1,11-0.8,15.3,3,18.1"></path>
		</g>
		<g transform="translate(0.671 11.913)">
			<path class="st5" d="M-2.6,26.5c0.3-0.2,0.5-0.5,0.8-0.9c0.5-0.6,1.1-1.4,1.9-2.5c2-2.8,3.7-5.8,4.9-9C6.2,10.9,6.5,7.4,5.9,4     c-0.2-1-0.5-2-1-3C4.7,0.6,4.5,0.3,4.3,0c0.5,1.3,0.9,2.7,1.2,4c0.5,3.3,0.1,6.8-1.1,9.9c-1.2,3.2-2.8,6.2-4.7,9     C-1.2,24.1-1.9,25.3-2.6,26.5z"></path>
		</g>
		<g transform="translate(0 7.014)">
			<path class="st5" d="M32.9,0c-0.5,0.3-1,0.7-1.5,1.1c-1,0.7-2.3,1.9-4,3.2c-3.3,2.8-7.9,6.7-12.8,11.1S5.4,24,2.3,27     c-1.5,1.5-2.8,2.8-3.6,3.6c-0.5,0.4-0.9,0.9-1.3,1.4c0.5-0.4,1-0.8,1.4-1.2l3.8-3.5c3.2-3,7.5-7,12.4-11.4s9.4-8.4,12.6-11.2     l3.8-3.4C32,0.9,32.5,0.5,32.9,0z"></path>
		</g>
		<g transform="translate(11.744 28.017)">
			<path class="st2" d="M-2.3,3.5c5.6-3.7,12.7-4.5,19-2.1c1.6,0.6,3.3,1.7,3.3,3.4s-1.6,2.9-3.2,3.5C10,10.8,2.4,9.1-2.6,3.9"></path>
		</g>
		<g transform="translate(1.351 30.508)">
			<path class="st5" d="M22.9,1.9c-0.3-0.2-0.6-0.4-1-0.5c-0.4-0.2-0.8-0.3-1.2-0.4c-0.5-0.2-1.1-0.3-1.6-0.5     C17.7,0.2,16.2,0,14.7,0C11.1-0.1,7.5,0.7,4.2,2.2C2.8,2.9,1.5,3.6,0.4,4.5C-0.1,4.8-0.5,5.2-1,5.6c-0.3,0.3-0.6,0.6-0.9,0.9     C-2.4,7-2.6,7.3-2.6,7.3c0.1,0.1,1.2-1.1,3.2-2.5C1.8,4,3.1,3.3,4.4,2.7c3.2-1.5,6.8-2.2,10.3-2.2c1.4,0,2.9,0.1,4.3,0.4     C21.5,1.4,22.9,2,22.9,1.9z"></path>
		</g>
	</g>
	<g transform="translate(1307.253 303.721)">
		<g transform="translate(0)">
			<g transform="translate(0.197 0.198)">
				<rect x="-2.6" y="0" class="st10" width="191.9" height="210.5"></rect>
			</g>
			<path class="st5" d="M189.5,210.7c0-1.5-0.1-84.7-0.2-210.5l0.2,0.2l-191.9,0h0l0.2-0.2c0,77.4,0,149.8,0,210.5l-0.2-0.2     L189.5,210.7l-191.9,0.2h-0.2v-0.2c0-60.7,0-133,0-210.5V0h0.2l191.9,0h0.2v0.2C189.6,126,189.5,209.2,189.5,210.7z"></path>
			<g transform="translate(47.851 167.125)">
				<g transform="translate(8.01)">
					<path fill="none" d="M9.5,0h71.1c6.7,0,12.1,5.4,12.1,12.1l0,0c0,6.7-5.4,12.1-12.1,12.1H9.5c-6.7,0-12.1-5.4-12.1-12.1l0,0       C-2.6,5.4,2.8,0,9.5,0z"></path>
				</g>
				<g transform="translate(8.01)">
					<path id="subs" class="st2" d="M9.5,0h71.1c6.7,0,12.1,5.4,12.1,12.1l0,0c0,6.7-5.4,12.1-12.1,12.1H9.5c-6.7,0-12.1-5.4-12.1-12.1l0,0       C-2.6,5.4,2.8,0,9.5,0z"></path>
				</g>
				<path id="subscribe" class="st4" d="M9.5,0h71.1c6.7,0,12.1,5.4,12.1,12.1l0,0c0,6.7-5.4,12.1-12.1,12.1H9.5c-6.7,0-12.1-5.4-12.1-12.1l0,0      C-2.6,5.4,2.8,0,9.5,0z"></path>
				<g transform="translate(26.298 9.119)">
					<path class="st10" d="M-2.6,4.6l0.3-0.7c0.5,0.4,1.1,0.6,1.7,0.6c0.8,0,1.1-0.3,1.1-0.7c0-1.1-3-0.4-3-2.2c0-0.8,0.6-1.5,2-1.5       c0.6,0,1.2,0.1,1.7,0.4L0.9,1.2C0.5,0.9,0,0.8-0.5,0.8c-0.8,0-1.1,0.3-1.1,0.7c0,1.1,3,0.4,3,2.2c0,0.8-0.7,1.5-2,1.5       C-1.3,5.2-2,5-2.6,4.6z"></path>
					<path class="st12" d="M-0.6,5.2c-0.7,0-1.4-0.2-2-0.6l0,0l0,0l0.3-0.7l0,0c0.5,0.4,1.1,0.5,1.6,0.5c0.7,0,1.1-0.2,1.1-0.6       C0.5,3.3,0,3.2-0.7,3c-0.8-0.2-1.8-0.4-1.8-1.5C-2.5,0.8-2,0-0.4,0c0.6,0,1.2,0.1,1.7,0.4l0,0l0,0L0.9,1.2l0,0       C0.5,1,0,0.8-0.5,0.8c-0.7,0-1.1,0.2-1.1,0.7c0,0.4,0.5,0.6,1.2,0.7c0.8,0.2,1.8,0.4,1.8,1.5c0,0.4-0.2,0.8-0.5,1.1       C0.5,5.1,0,5.2-0.6,5.2z M-2.6,4.6C-2,5-1.3,5.2-0.6,5.2c1.2,0,2-0.6,2-1.5c0-1-0.9-1.3-1.8-1.5C-1,2.1-1.6,2-1.6,1.5       c0-0.4,0.4-0.7,1.1-0.7c0.5,0,1,0.1,1.4,0.4l0.3-0.7C0.7,0.2,0.1,0-0.4,0c-1.5,0-2,0.8-2,1.5c0,1,0.9,1.3,1.8,1.5       C0,3.1,0.5,3.3,0.5,3.8c0,0.4-0.4,0.7-1.1,0.7c-0.6,0-1.2-0.2-1.7-0.5L-2.6,4.6z"></path>
					<g transform="translate(4.907 0.072)">
						<path class="st10" d="M-2.6,2.9V0h0.9v2.8c0,1,0.5,1.5,1.3,1.5s1.3-0.4,1.3-1.5V0h0.9v2.8c0,1.2-1,2.2-2.2,2.2        S-2.6,4.1-2.6,2.9C-2.6,2.9-2.6,2.9-2.6,2.9L-2.6,2.9z"></path>
						<path class="st12" d="M-0.4,5.1c-1.1,0.1-2.1-0.7-2.2-1.9c0-0.1,0-0.3,0-0.4V0h1v2.8c0,1,0.4,1.5,1.3,1.5s1.3-0.5,1.3-1.5V0h1        v2.9C2,4,1.2,5,0,5.1C-0.1,5.1-0.2,5.2-0.4,5.1z M-2.6,0v2.8c0,1.2,0.9,2.2,2.1,2.2c1.2,0,2.2-0.9,2.2-2.1c0,0,0-0.1,0-0.1V0        H0.9v2.8c0,1-0.4,1.5-1.3,1.5s-1.3-0.5-1.3-1.5V0H-2.6z"></path>
					</g>
					<g transform="translate(10.622 0.072)">
						<path class="st10" d="M1.9,3.7c0,0.9-0.7,1.4-2,1.4h-2.5V0h2.4C1,0,1.6,0.5,1.6,1.3c0,0.5-0.2,0.9-0.6,1.1        C1.5,2.6,1.9,3.1,1.9,3.7z M-1.6,0.8v1.4h1.3c0.6,0,1-0.2,1-0.7s-0.4-0.7-1-0.7L-1.6,0.8z M0.9,3.6c0-0.5-0.4-0.7-1.1-0.7        h-1.5v1.5h1.5C0.6,4.3,0.9,4.1,0.9,3.6L0.9,3.6z"></path>
						<path class="st12" d="M-0.1,5.1h-2.5V0h2.4c1.2,0,1.9,0.5,1.9,1.3c0,0.5-0.2,0.9-0.6,1.1c0.5,0.2,0.9,0.7,0.9,1.3        C1.9,4.6,1.2,5.1-0.1,5.1z M-2.6,5h2.5c1.3,0,1.9-0.5,1.9-1.3c0-0.6-0.3-1.1-0.9-1.2l0,0l0,0c0.4-0.2,0.7-0.6,0.6-1.1        C1.6,0.5,0.9,0-0.2,0h-2.3L-2.6,5z M-0.1,4.3h-1.5V2.8h1.5C0.6,2.8,1,3.1,1,3.6S0.6,4.3-0.1,4.3L-0.1,4.3z M-1.6,4.3h1.5        c0.7,0,1.1-0.2,1.1-0.7S0.6,2.9-0.1,2.9h-1.5V4.3z M-0.3,2.2h-1.3V0.7h1.3c0.7,0,1,0.2,1,0.7S0.3,2.2-0.3,2.2L-0.3,2.2z         M-1.6,2.1h1.3c0.5,0,1-0.1,1-0.7s-0.5-0.7-1-0.7h-1.3V2.1z"></path>
					</g>
					<g transform="translate(15.665)">
						<path class="st10" d="M-2.6,4.6l0.3-0.7c0.5,0.4,1.1,0.6,1.7,0.6c0.8,0,1.1-0.3,1.1-0.7c0-1.1-3-0.4-3-2.2        c0-0.8,0.6-1.5,2-1.5c0.6,0,1.2,0.1,1.7,0.4L0.9,1.2C0.5,0.9,0,0.8-0.5,0.8c-0.8,0-1.1,0.3-1.1,0.7c0,1.1,3,0.4,3,2.2        c0,0.8-0.7,1.5-2,1.5C-1.3,5.2-2,5-2.6,4.6z"></path>
						<path class="st12" d="M-0.6,5.2c-0.7,0-1.4-0.2-2-0.6l0,0l0,0l0.3-0.7l0,0c0.5,0.4,1.1,0.5,1.6,0.5c0.7,0,1.1-0.2,1.1-0.6        C0.5,3.3,0,3.2-0.7,3c-0.8-0.2-1.8-0.4-1.8-1.5C-2.5,0.8-2,0-0.4,0c0.6,0,1.2,0.1,1.7,0.4l0,0l0,0L0.9,1.2l0,0        C0.5,1,0,0.8-0.4,0.8c-0.7,0-1.1,0.2-1.1,0.7c0,0.4,0.5,0.6,1.2,0.7c0.8,0.2,1.8,0.4,1.8,1.5C1.5,4.6,0.7,5.2-0.6,5.2z         M-2.6,4.6C-2,5-1.3,5.2-0.6,5.2c1.2,0,2-0.6,2-1.5c0-1-0.9-1.3-1.8-1.5C-1,2.1-1.6,2-1.6,1.5c0-0.4,0.4-0.7,1.1-0.7        c0.5,0,1,0.1,1.4,0.4l0.3-0.7C0.7,0.2,0.1,0-0.4,0c-1.5,0-2,0.8-2,1.5c0,1,0.9,1.3,1.8,1.5C0,3.1,0.5,3.3,0.5,3.8        c0,0.4-0.4,0.7-1.1,0.7c-0.6,0-1.2-0.2-1.7-0.5L-2.6,4.6z"></path>
					</g>
					<g transform="translate(20.254)">
						<path class="st10" d="M-2.6,2.6C-2.5,1.1-1.2-0.1,0.3,0c0.7,0,1.4,0.3,1.8,0.8L1.5,1.4C1.2,1,0.7,0.8,0.2,0.8        c-1,0-1.8,0.8-1.8,1.8c0,1,0.8,1.8,1.8,1.8c0.5,0,1-0.2,1.3-0.6l0.6,0.6c-1,1.1-2.8,1.1-3.8,0.1C-2.2,4-2.5,3.3-2.6,2.6        L-2.6,2.6z"></path>
						<path class="st12" d="M0.1,5.2c-1.4,0-2.6-1.3-2.5-2.7S-1.2,0,0.3,0C1,0,1.6,0.3,2.1,0.8l0,0l0,0L1.5,1.5l0,0        C1.1,1.1,0.7,0.9,0.2,0.9c-1,0-1.8,0.8-1.8,1.8s0.8,1.8,1.8,1.8c0.5,0,1-0.2,1.3-0.6l0,0l0.6,0.6l0,0C1.6,4.9,0.9,5.2,0.1,5.2        z M0.1,0c-1.4,0-2.5,1.2-2.5,2.6c0,1.4,1.2,2.5,2.6,2.5c0.7,0,1.3-0.3,1.8-0.8L1.5,3.8C1.2,4.2,0.7,4.4,0.2,4.4        c-1,0-1.8-0.8-1.8-1.7c0-1,0.8-1.8,1.7-1.8c0,0,0.1,0,0.1,0c0.5,0,1,0.2,1.3,0.6l0.6-0.5C1.6,0.3,0.9,0,0.1,0z"></path>
					</g>
					<g transform="translate(25.84 0.072)">
						<path class="st10" d="M0.7,5l-1-1.5c-0.1,0-0.1,0-0.2,0h-1.1V5h-0.9V0h2.1c1.3,0,2.1,0.7,2.1,1.8c0,0.7-0.4,1.4-1.1,1.6L1.7,5        L0.7,5z M-0.6,0.8h-1.1v2h1.1c0.8,0,1.2-0.4,1.2-1S0.3,0.8-0.6,0.8z"></path>
						<path class="st12" d="M1.8,5.1H0.7l0,0l-1-1.5c-0.1,0-0.1,0-0.2,0h-1.1v1.5h-1V0h2.1c1.3,0,2.2,0.7,2.2,1.8        c0,0.7-0.4,1.4-1.1,1.6L1.8,5.1z M0.7,5h1L0.5,3.4l0,0c0.7-0.2,1.1-0.9,1.1-1.6C1.6,0.7,0.8,0-0.5,0h-2.1v5h0.9V3.6h1.2        c0.1,0,0.1,0,0.2,0h0l0,0L0.7,5z M-0.6,2.8h-1.1v-2h1.1c0.8,0,1.3,0.4,1.3,1S0.3,2.8-0.6,2.8L-0.6,2.8z M-1.6,2.8h1.1        c0.8,0,1.2-0.3,1.2-1s-0.4-1-1.2-1h-1.1V2.8z"></path>
					</g>
					<g transform="translate(31.096 0.072)">
						<path class="st10" d="M-2.6,0h0.9v5h-0.9V0z"></path>
						<path class="st12" d="M-1.6,5.1h-1V0h1V5.1z M-2.6,5h0.9V0h-0.9V5z"></path>
					</g>
					<g transform="translate(33.388 0.072)">
						<path class="st10" d="M1.9,3.7c0,0.9-0.7,1.4-2,1.4h-2.5V0h2.4C1,0,1.6,0.5,1.6,1.3c0,0.5-0.2,0.9-0.6,1.1        C1.5,2.6,1.9,3.1,1.9,3.7z M-1.6,0.8v1.4h1.3c0.6,0,1-0.2,1-0.7s-0.4-0.7-1-0.7L-1.6,0.8z M0.9,3.6c0-0.5-0.4-0.7-1.1-0.7        h-1.5v1.5h1.5C0.6,4.3,0.9,4.1,0.9,3.6z"></path>
						<path class="st12" d="M-0.1,5.1h-2.5V0h2.4c1.2,0,1.9,0.5,1.9,1.3c0,0.5-0.2,0.9-0.6,1.1c0.5,0.2,0.9,0.7,0.9,1.3        C1.9,4.6,1.2,5.1-0.1,5.1z M-2.6,5h2.5c1.3,0,1.9-0.5,1.9-1.3c0-0.6-0.3-1.1-0.9-1.2l0,0l0,0c0.4-0.2,0.7-0.6,0.6-1.1        C1.6,0.5,0.9,0-0.2,0h-2.3L-2.6,5z M-0.1,4.3h-1.5V2.8h1.5C0.6,2.8,1,3.1,1,3.6S0.6,4.3-0.1,4.3L-0.1,4.3z M-1.6,4.3h1.5        c0.7,0,1.1-0.2,1.1-0.7S0.6,2.9-0.1,2.9h-1.5V4.3z M-0.3,2.2h-1.3V0.7h1.3c0.7,0,1,0.2,1,0.7S0.3,2.2-0.3,2.2L-0.3,2.2z         M-1.6,2.1h1.3c0.5,0,1-0.1,1-0.7s-0.5-0.7-1-0.7h-1.3V2.1z"></path>
					</g>
					<g transform="translate(38.859 0.072)">
						<path class="st10" d="M1.2,4.3V5h-3.8V0h3.7v0.8h-2.7v1.3h2.4v0.8h-2.4v1.4L1.2,4.3z"></path>
						<path class="st12" d="M1.2,5.1h-3.8V0h3.7v0.8h-2.7v1.3h2.4v0.8h-2.4v1.3h2.8L1.2,5.1z M-2.6,5h3.7V4.3h-2.8V2.9h2.4V2.1h-2.4        V0.8h2.7V0h-3.6L-2.6,5z"></path>
					</g>
				</g>
			</g>
			<g transform="translate(132.269 95.364)">
				<path class="st11" d="M-2.6,0"></path>
			</g>
			<g transform="translate(42.99 150.74)">
				<path class="st5" d="M106.4,0.2c0,0.1-24.4,0.2-54.5,0.2S-2.6,0.3-2.6,0.2S21.8,0,51.9,0S106.4,0.1,106.4,0.2z"></path>
			</g>
			<g transform="translate(25.932 157.335)">
				<path class="st5" d="M140.5,0.2c0,0.1-32,0.2-71.6,0.2S-2.6,0.3-2.6,0.2S29.4,0,69,0S140.5,0.1,140.5,0.2z"></path>
			</g>
		</g>
		<g transform="translate(5.971 6.759)">
			<path class="st3" d="M0.6,1.6c0,0.9-0.7,1.6-1.6,1.6s-1.6-0.7-1.6-1.6S-1.9,0-1,0S0.6,0.7,0.6,1.6L0.6,1.6z"></path>
		</g>
		<g transform="translate(11.388 6.759)">
			<circle class="st3" cx="-1" cy="1.6" r="1.6"></circle>
		</g>
		<g transform="translate(16.806 6.759)">
			<path class="st3" d="M0.6,1.6c0,0.9-0.7,1.6-1.6,1.6s-1.6-0.7-1.6-1.6S-1.9,0-1,0S0.6,0.7,0.6,1.6L0.6,1.6z"></path>
		</g>
	</g>
	<g transform="translate(1278.895 249.014)">
		<g transform="translate(193.226 72.436)">
			<path class="st13" d="M10.4,24.7l3.2-11.4c0,0,1.1-4.6,1.4-5.7c0.4-1.4-0.6-1.9-1.2-0.9c-0.2,0.4-2.7,5.1-2.7,5.1s2-7.7,2.1-8     c0.6-2.5-0.9-2.3-1.4-1.4c-0.5,0.9-3.3,8.5-3.3,8.5C11,1,10.2,0.2,9.5,0S6.4,8.9,6.4,8.9C5.8,7.9,5,7,4,6.3     c-2.4-1.6-6.4,0-6.6,1.1s1.2,1.4,1.2,1.4c1.6-1.2,3.8-0.9,5,0.7c0.6,0.7,0.8,1.7,0.7,2.6c-0.1,1.2-1.2,2.2-2.4,2     c-0.9-0.1-1.7-0.7-2-1.6c-1-4.5-2.5-3-2.5-3l1.5,9.9l-1.6,5"></path>
		</g>
		<g transform="translate(91.977 115.509)">
			<g transform="translate(0.001 27.555)">
				<path class="st6" d="M-2.1,0.5L66.2,0l1.9,46.4l-70.7-0.7L-2.1,0.5z"></path>
			</g>
			<g transform="translate(0.545)">
				<path class="st5" d="M-2.6,28L32.1,0l33.6,27.6"></path>
			</g>
			<g transform="translate(0 46.912)">
				<path class="st5" d="M-2.6,26.3c-0.1-0.1,5.4-6,12.2-13.3S22-0.1,22.1,0S16.7,6,9.9,13.3S-2.5,26.4-2.6,26.3z"></path>
			</g>
			<g transform="translate(47.222 47.549)">
				<path class="st5" d="M20.8,26.4c-0.1,0.1-5.4-5.8-11.9-13.1S-2.7,0.1-2.6,0S2.8,5.8,9.3,13.1S20.9,26.3,20.8,26.4z"></path>
			</g>
			<g transform="translate(0.545 27.555)">
				<path class="st5" d="M65.6,0L31.4,27.4l-34-26.9"></path>
			</g>
		</g>
		<g transform="translate(43.248 70.382)">
			<path class="st13" d="M1.1,20.9l0.2,0l-0.9-3.1L-2.5,6.1C-2.8,5.1-2.2,4-1.2,3.6l2.1-0.1l7.2-3.4c1.2-0.5,2.5,0.1,2.9,1.3     c0.1,0.2,0.1,0.3,0.1,0.5c0.3,2.1,1.7,7.9,3.3,5.9c0,0,0.1-0.1,0.1-0.1c2.2-3,4.9-4.6,6-4.6c0.7,0.1,1.2,0.7,1.1,1.4     c0,0.3-0.2,0.6-0.4,0.8c-0.1,0.1-0.3,0.3-0.4,0.4c-0.1,0-0.2,0.1-0.2,0.2c-1,0.9-1.8,1.8-2.6,2.8c-0.7,0.9-1.2,1.9-1.6,3     c-0.4,1.2-0.7,2.3-0.9,3.2l0.6,6"></path>
		</g>
		<path class="st6" d="M63.6,38.4c0,0-8.4-1.6-20.5-12.6S25-0.1,23.5,0s-7.8-2.6-19,23.7s-6.3,32.3-4,32.2s18.4-5.1,28.6-4.2    s23.3,5.8,23.3,5.8L63.6,38.4z"></path>
		<g transform="translate(53.162 33.573)">
			<path class="st5" d="M28.6,18.5L25.9,24l-1.2,2.5c-1.7,3.4-5.7,4.9-9.1,3.4l-18.1-5.7L7.2,0l18.2,9C28.9,10.8,30.3,15,28.6,18.5z     "></path>
		</g>
		<g transform="translate(42.217 57.446)">
			<path class="st5" d="M29.4,3.6L24,15l-2.9-0.7L2.9,30l-5.5-10.1c0,0,10.9-5.1,12.8-9.1S9.8,6,9.8,6l5-6L29.4,3.6z"></path>
		</g>
		<g transform="translate(1.541 0.627)">
			<path class="st5" d="M3.9,23.6c-6,14.3-8.3,26.9-5.1,28.2s10.5-9.2,16.5-23.5s8.3-26.9,5.1-28.2S9.9,9.3,3.9,23.6z"></path>
		</g>
		<g transform="translate(81.188 52.686)">
			<path class="st6" d="M2.3,7.2l-4.9-1.4L0.3,0L4,2.2L2.3,7.2z"></path>
		</g>
		<g transform="translate(57.888 59.518)">
			<path class="st6" d="M-2.6,0l13.3,8l1.5-3.2L-2.6,0z"></path>
		</g>
		<g transform="translate(81.188 52.686)">
			<path class="st6" d="M0.2,0l-2.8,5.8l1,0.3l2.3-5.8L0.2,0z"></path>
		</g>
		<g transform="translate(70.004 49.6)">
			<path class="st6" d="M8.1,4.5c-0.1,0.2-2.5-0.7-5.5-2S-2.7,0.2-2.6,0s2.5,0.7,5.5,2S8.2,4.3,8.1,4.5z"></path>
		</g>
		<g transform="translate(72.454 46.209)">
			<path class="st6" d="M7.1,4.4C7,4.6,4.8,3.7,2.1,2.5S-2.7,0.2-2.6,0s2.3,0.7,5,1.9S7.1,4.3,7.1,4.4z"></path>
		</g>
		<g transform="translate(69.169 53.693)">
			<path class="st6" d="M7.2,4c0,0.1-0.6,0-1.5-0.3C5.2,3.6,4.6,3.4,4,3.3S2.8,2.8,2.1,2.5C0.4,1.9-1.1,1-2.6,0     c0.1-0.2,2.3,0.7,4.9,1.9C3,2.2,3.6,2.5,4.2,2.7s1.1,0.4,1.6,0.6C6.7,3.7,7.2,4,7.2,4z"></path>
		</g>
		<g transform="translate(8.864 19.797)">
			<path class="st6" d="M9.5,0.9c0,0-7.4-4.3-11.1,5.6s4,11.3,4,11.3C5.6,12.6,8,6.9,9.5,0.9z"></path>
		</g>
		<g transform="translate(8.753 8.794)">
			<path class="st5" d="M17,0c0,0.6-0.1,1.3-0.2,1.9c-0.2,1.2-0.5,3-0.9,5.1c-0.3,1.1-0.6,2.2-0.9,3.5l-0.5,1.9l-0.3,1     c-0.1,0.3-0.2,0.7-0.3,1l-1.5,4.3L12,19.8c-0.1,0.4-0.3,0.7-0.5,1.1l-1,2.3l-1,2.3c-0.2,0.4-0.3,0.7-0.5,1.1s-0.4,0.7-0.6,1     c-0.8,1.4-1.5,2.7-2.2,4c-0.2,0.3-0.3,0.6-0.5,0.9L5,33.4l-1.1,1.7l-2,3c-1.3,1.7-2.5,3.1-3.2,4c0.4,0.4,0.4,1,0,1.3     c-0.4,0.4-1,0.4-1.3,0c-0.4-0.4-0.4-1,0-1.3c0.3-0.3,0.8-0.4,1.2-0.1l3.1-4.2l1.9-3l1.1-1.7l0.6-0.9c0.2-0.3,0.3-0.6,0.5-0.9     c0.7-1.3,1.4-2.6,2.2-4c0.2-0.3,0.4-0.7,0.6-1c0.2-0.3,0.3-0.7,0.5-1.1l1-2.2c0.3-0.8,0.7-1.5,1-2.2c0.2-0.4,0.3-0.7,0.5-1.1     l0.4-1.1l1.5-4.2c0.1-0.3,0.3-0.7,0.4-1l0.3-1c0.2-0.7,0.4-1.3,0.5-1.9c0.4-1.2,0.7-2.4,1-3.4c0.4-2.1,0.8-3.8,1.1-5.1     C16.7,1.2,16.8,0.6,17,0z"></path>
		</g>
		<g transform="translate(156.279 135.562)">
			<path class="st11" d="M-2.6,0"></path>
		</g>
		<g transform="translate(45.758 86.5)">
			<g transform="translate(53.544 39.605)">
				<path class="st11" d="M-2.6,0"></path>
			</g>
			<g transform="translate(0 0.443)">
				
					<linearGradient id="SVGID_1_" gradientUnits="userSpaceOnUse" x1="-288.2563" y1="207.1872" x2="-287.2563" y2="207.1872" gradientTransform="matrix(163.2122 0 0 -83.2672 47044.332 17293.5312)">
					<stop offset="0" style="stop-color:#1A164A"></stop>
					<stop offset="0.997" style="stop-color:#244C7A"></stop>
				</linearGradient>
				<path class="st14" d="M23.7,30.4L16.2,1.8L-2.6,2.3l5.9,39.9C4,50.9,9.1,56.6,17.7,58c5.2,0.8,10.8-4.1,14.9-7.3      c2.7-2.1,3.2-1.7,6-4.2l0,0l12.1-8.8l0.3,1.4h-0.1L53,63.6l25.1,19.7l29.9-24l-0.7-10.4c0.1,0,0.1-0.2,0-0.2L106.6,37l15.3,17.6      c5.5,8,16.4,10,24.3,4.6c2.9-2,5.2-4.8,6.4-8.1l7.9-40.2L143.3,7l-8.1,29l-19.4-22.3C104.6-0.8,91.5,0.4,91.5,0.4L67.5,0h-0.1      c-0.7,0-14.2,0.4-23.3,10.2L23.7,30.4z"></path>
			</g>
			<g transform="translate(76.439 37.432)" class="st15">
				<path d="M-2.6,42.9c9.7-5.7,21-12.3,26.7-22c3.6-6.2,5.4-13.7,6.1-20.9l1.5,22.3l-29.9,24L-2.6,42.9z"></path>
			</g>
			<g transform="translate(26.201 6.625)" class="st16">
				<path d="M22.4,0C20.2,8.4,15.5,16,9,21.7c-1.6,1.5-3.4,2.6-5.4,3.4c-2,0.8-4.3,0.6-6.2-0.4l0.1-0.5l15.2-15L22.4,0z"></path>
			</g>
			<g transform="translate(26.309 30.891)">
				<path class="st5" d="M-0.6,11.9c-0.1,0,0.2-0.7,0.4-1.8c0.5-2.9,0-5.9-1.4-8.5c-0.6-1-1-1.5-0.9-1.6c0.5,0.4,0.9,0.9,1.2,1.4      C0.2,4,0.7,7.2,0,10.2C-0.1,10.8-0.3,11.4-0.6,11.9z"></path>
			</g>
			<g transform="translate(23.924 31.24)">
				<path class="st5" d="M-2.6,7.7c1.7-2.2,2.4-5,2.1-7.7c0.2,0.4,0.3,0.8,0.3,1.2c0.2,2-0.4,4-1.6,5.7C-2.2,7.5-2.6,7.8-2.6,7.7z"></path>
			</g>
			<g transform="translate(52.165 23.267)">
				<path class="st5" d="M-2.6,0c0.1,0,0.7,6,1.4,13.5s1.1,13.5,1,13.6s-0.7-6-1.4-13.5S-2.7,0-2.6,0z"></path>
			</g>
			<g transform="translate(70.256)">
				<path class="st5" d="M19.9,0C19.9,0.1,20,0.3,20,0.4c0.1,0.4,0.3,0.8,0.3,1.2c0.3,1.5,0.3,3.1-0.1,4.6c-0.5,2.3-1.6,4.4-3.3,6      c-4.4,4-11.1,4.2-15.6,0.3C-0.4,11-1.6,9-2.2,6.8c-0.4-1.5-0.5-3.1-0.3-4.6c0.1-0.4,0.2-0.8,0.3-1.2c0-0.1,0.1-0.3,0.1-0.4      c0,0-0.1,0.6-0.3,1.7c-0.2,1.5,0,3.1,0.4,4.5c0.6,2.2,1.8,4.1,3.5,5.7C6,16,12.5,15.9,16.7,12c1.6-1.6,2.8-3.6,3.3-5.8      c0.4-1.5,0.4-3,0.2-4.6C20,0.6,19.8,0,19.9,0z"></path>
			</g>
			<g transform="translate(136.659 36.264)">
				<path class="st5" d="M-2.4,9.5C-2.8,6.3-2.6,3.1-1.9,0C-1.8,0-2,2.1-2.1,4.7S-2.3,9.5-2.4,9.5z"></path>
			</g>
			<g transform="translate(137.549 35.982)">
				<path class="st5" d="M-0.3,11.2c-0.3-0.5-0.5-1-0.6-1.6C-1.8,7-2.3,4.4-2.5,1.7c-0.1-0.6-0.1-1.1,0-1.7c0.1,0,0.3,2.5,1,5.6      S-0.1,11.1-0.3,11.2z"></path>
			</g>
			<g transform="translate(108.415 28.441)">
				<path class="st5" d="M-1.8,19.1c-0.1,0-0.4-4.3-0.6-9.6S-2.7,0-2.5,0S-2.2,4.3-2,9.6S-1.7,19.1-1.8,19.1z"></path>
			</g>
		</g>
		<g transform="translate(103.193 31.248)">
			<g transform="translate(4.187 9.978)">
				<path class="st17" d="M17.7,59.5L17.7,59.5C12,59.4,7.4,54.8,7.2,49.2c-0.2-4.2-0.3-8-0.3-8s-8.7-0.9-9.2-9.6s0-28.6,0-28.6l0,0      C7.4-1.7,19.1-0.8,28,5.4l1.3,0.9l-0.6,42.6C28.6,54.8,23.7,59.6,17.7,59.5C17.8,59.5,17.7,59.5,17.7,59.5z"></path>
				<g transform="translate(9.447 37.302)">
					<path class="st18" d="M-2.6,3.7C1.4,3.6,5.3,2.3,8.5,0c0,0-2.4,6.3-11,6L-2.6,3.7z"></path>
				</g>
				<g transform="translate(31.309 14.94)">
					<path class="st13" d="M-2.6,0.4c0.1-0.1,5.9-2,6,3.9S-2.5,9-2.5,8.9S-2.6,0.4-2.6,0.4z"></path>
					<g transform="translate(1.84 1.899)">
						<path class="st18" d="M-2.6,4.7c0,0,0.1,0.1,0.3,0.1c0.2,0.1,0.5,0.1,0.8,0c0.8-0.5,1.2-1.4,1.1-2.3c0-0.5-0.1-1-0.3-1.5        c-0.1-0.4-0.4-0.7-0.8-0.8C-1.7,0.2-2,0.4-2.1,0.6c-0.1,0.2,0,0.3-0.1,0.3s-0.1-0.1-0.1-0.3c0-0.1,0.1-0.3,0.2-0.4        C-1.9,0-1.7,0-1.5,0C-1,0.1-0.6,0.4-0.4,0.9C-0.1,1.4,0,2,0,2.5c0.1,1.1-0.5,2.1-1.5,2.6c-0.3,0.1-0.7,0-0.9-0.1        C-2.6,4.8-2.6,4.7-2.6,4.7z"></path>
					</g>
				</g>
			</g>
			<path class="st5" d="M-2.6,7.3c-0.1-1.1,0.3-2.2,1.2-2.9c0.9-0.7,2.1-0.6,2.9,0.2c-0.3-1.4,0.6-2.8,2-3.2c0.1,0,0.2,0,0.3,0     c1.4-0.1,2.6,1,4,1.3c1.4,0.3,2.8,0.1,4-0.5c1.3-0.5,2.5-1.2,3.8-1.7c5.7-2.1,12,0.8,14.2,6.5c2-0.5,4.1,0.3,5.2,2     c1.1,1.7,1.5,3.7,1.2,5.7c-0.2,1.3-0.5,2.6-1,3.9c0,0.1,0,0.2,0,0.3c-0.1,4.8-0.6,10.3-2.7,10.4c-3.5,0.1-2.7-6.6-2.7-6.6     c-4.3-1.7-2.7-8.2-3.8-9.2s-3.4-3.3-12.4,1.4c-3.4,1.5-7.2,1.9-10.8,1.2c-0.1,0-0.2,0-0.2,0c0,0,0,0-0.1,0s0,0-0.1,0     c-0.8-0.2-1.6-0.5-2.3-1c-0.9-0.5-1.5-1.2-1.9-2.1C-2.2,12-2,11-1.3,10.2C-2,9.4-2.5,8.4-2.6,7.3z"></path>
		</g>
	</g>
	<g id="plane">
	<g transform="translate(1473.47 240.728)">
		<path class="st4 paper" d="M-2.6,2.7L16,18.1l-1.7,17.7l15.2-8.5l16.2,11.5L106.3,0L-2.6,2.7z"></path>
		<g transform="translate(16.894 0.041)" class="st19">
			<path class="paper" d="M-0.9,18.1L87.8,0L8.1,24.1L-2.6,35.8l0,0L-0.9,18.1z"></path>
		</g>
		<g transform="translate(16.894 24.144)" class="st20">
			<path class="paper" d="M8.1,0l4.5,3.2l-15.2,8.5L8.1,0z"></path>
		</g>
	</g>
	</g>
	<g transform="translate(2803.857 1748.459) rotate(-160)">
		<path class="st0 announce" d="M1942.4,841.6l1.3,3.1l30.6-11.2l-4.2-9.2L1942.4,841.6z"></path>
		<path class="st0 announce" d="M1945.4,863.2l0.4,5.9l46.1,6.7l-0.6-13.6L1945.4,863.2z"></path>
		<path class="st0 announce" d="M1943.3,886l-1.9,4.4l23.9,20.7l4.4-7.3L1943.3,886z"></path>
	</g>
</g>
</svg>