<svg xmlns:xlink="http://www.w3.org/1999/xlink" xmlns="http://www.w3.org/2000/svg" width="604.753" height="256" viewBox="0 0 604.753 256">
  <g id="Group_5214" data-name="Group 5214" transform="translate(-703.247 -3683)">
    <g id="Group_5212" data-name="Group 5212" transform="translate(0 276)">
      <g id="grid-lines" transform="translate(703.247 3407)" opacity="0.5">
        <path id="Path_23953" data-name="Path 23953" d="M178.191,239.111a.446.446,0,0,0-.891-.059,532.337,532.337,0,0,0-.015,69.362c3.687,58.943,9.26,148.02-40.9,185.324a.445.445,0,0,0,.535.712c50.542-37.592,44.952-126.957,41.253-186.093A531.355,531.355,0,0,1,178.191,239.111Z" transform="translate(-136.21 -238.603)" fill="#9ce0fd"/>
        <path id="Path_23954" data-name="Path 23954" d="M247.564,238.783c-.245.338-24.548,34.223-22.1,73.366.7,11.193,1.9,22.834,3.18,35.16,5.641,54.509,12.033,116.291-28.375,146.347a.445.445,0,0,0,.535.712c40.813-30.358,34.393-92.407,28.728-147.151-1.274-12.316-2.478-23.95-3.177-35.125-2.427-38.816,21.689-72.453,21.933-72.788a.446.446,0,0,0-.723-.522Z" transform="translate(-143.077 -238.598)" fill="#9ce0fd"/>
        <path id="Path_23955" data-name="Path 23955" d="M754.816,432.953c-.115-.22-11.775-22.243-34.616-50.794-21.079-26.35-56.269-63.815-104.21-92.664-52.251-31.444-128.939-47.756-205.145-43.635-52.1,2.818-90.39,17.527-113.8,43.72-29.568,33.083-24.751,82.768-20.881,122.692.923,9.513,1.794,18.5,2.2,26.835,1.685,34.789-12.567,55.3-12.711,55.5a.443.443,0,0,0,.106.62.454.454,0,0,0,.257.082.449.449,0,0,0,.365-.188c.146-.206,14.575-20.944,12.874-56.06-.4-8.357-1.276-17.353-2.2-26.877C273,370.366,268.4,322.966,297.713,290.172c23.245-26.009,61.324-40.62,113.18-43.424,76.037-4.11,152.532,12.154,204.637,43.509,47.819,28.776,82.927,66.152,103.959,92.438,22.792,28.488,34.422,50.452,34.536,50.67a.45.45,0,0,0,.6.188A.444.444,0,0,0,754.816,432.953Z" transform="translate(-150.118 -239.312)" fill="#9ce0fd"/>
        <path id="Path_23956" data-name="Path 23956" d="M594.4,345.678c-41.914-24.109-103.428-36.613-164.546-33.457-41.8,2.161-72.521,13.444-91.309,33.539-23.745,25.395-19.879,63.508-16.773,94.132.739,7.292,1.438,14.178,1.761,20.566,1.353,26.688-4.178,41.993-4.234,42.145a.446.446,0,0,0,.837.31c.056-.153,5.651-15.61,4.288-42.5C324.1,454,323.4,447.105,322.66,439.8c-3.248-32.03-6.929-68.334,16.538-93.433,18.625-19.919,49.143-31.109,90.7-33.257,60.958-3.149,122.284,9.311,164.054,33.339,73.385,42.212,145.3,155.475,146.016,156.614a.446.446,0,1,0,.755-.476C740.008,501.449,667.979,388,594.4,345.678Z" transform="translate(-155.891 -247.462)" fill="#9ce0fd"/>
        <path id="Path_23957" data-name="Path 23957" d="M574.787,402.478c-32.512-16.646-80.23-25.281-127.637-23.1-32.436,1.493-56.277,9.29-70.863,23.175-18.47,17.586-15.466,43.938-13.053,65.114.573,5.027,1.115,9.776,1.366,14.178,1.047,18.371-2.76,28.093-2.8,28.189a.446.446,0,0,0,.248.58.455.455,0,0,0,.166.032.447.447,0,0,0,.414-.279c.039-.1,3.922-9.981,2.862-28.573-.253-4.428-.8-9.188-1.369-14.228-2.516-22.072-5.367-47.088,12.78-64.367,14.426-13.732,38.074-21.447,70.288-22.929,47.261-2.172,94.809,6.424,127.19,23C631.265,432.4,685.754,509.417,686.3,510.191a.446.446,0,0,0,.73-.512C686.484,508.9,631.869,431.7,574.787,402.478Z" transform="translate(-160.423 -254.698)" fill="#9ce0fd"/>
        <path id="Path_23958" data-name="Path 23958" d="M577.848,471.86c-27.949-19-69.473-39.15-108.55-27.211s-54.125,30.907-59.867,44.715c-6.238,15-3.143,27.357-3.111,27.481a.447.447,0,0,0,.431.334.454.454,0,0,0,.113-.014.447.447,0,0,0,.319-.544c-.031-.121-3.054-12.186,3.072-26.914,5.668-13.631,20.559-32.364,59.3-44.2s79.988,8.195,107.773,27.085a314.74,314.74,0,0,1,51.608,44.354.446.446,0,1,0,.666-.594A315.723,315.723,0,0,0,577.848,471.86Z" transform="translate(-165.164 -261.366)" fill="#9ce0fd"/>
        <path id="Path_23959" data-name="Path 23959" d="M504.813,494.294c-33.84,0-45.16,7.008-61.995,28.068a.446.446,0,1,0,.7.558c16.635-20.808,27.826-27.733,61.3-27.733,33.989,0,74.882,27.481,75.291,27.759a.447.447,0,1,0,.5-.739C580.194,521.928,539.078,494.294,504.813,494.294Z" transform="translate(-169.163 -267.089)" fill="#9ce0fd"/>
        <path id="Path_23960" data-name="Path 23960" d="M667.991,239.5c37.647,11.537,70.787,42.269,91.957,66.018a379.4,379.4,0,0,1,37.326,49.311.445.445,0,0,0,.381.215.452.452,0,0,0,.231-.064.446.446,0,0,0,.151-.613,380.291,380.291,0,0,0-37.41-49.43c-21.249-23.839-54.526-54.691-92.374-66.289a.446.446,0,1,0-.261.853Z" transform="translate(-193.349 -238.601)" fill="#9ce0fd"/>
      </g>
    </g>
    <g id="Path_23974" data-name="Path 23974" transform="matrix(0.914, -0.407, 0.407, 0.914, 852.726, 3784.692)" fill="none">
      <path d="M6.5,6.294a4,4,0,0,1,6.993,0l3.2,5.763A4,4,0,0,1,13.2,18H6.8a4,4,0,0,1-3.5-5.943Z" stroke="none"/>
      <path d="M 10 6.236507415771484 C 9.646169662475586 6.236507415771484 8.767499923706055 6.336748123168945 8.251680374145508 7.265227317810059 L 5.049750328063965 13.02870750427246 C 4.548419952392578 13.93108749389648 4.899920463562012 14.71786785125732 5.074319839477539 15.01425743103027 C 5.248709678649902 15.31063747406006 5.765780448913574 15.99999809265137 6.798060417175293 15.99999809265137 L 13.20194053649902 15.99999809265137 C 14.23422050476074 15.99999809265137 14.75128936767578 15.31063747406006 14.92568016052246 15.01425743103027 C 15.1000804901123 14.71786785125732 15.45158004760742 13.93108749389648 14.95026016235352 13.02871799468994 L 11.74831008911133 7.265217781066895 C 11.23250007629395 6.336748123168945 10.35383033752441 6.236507415771484 10 6.236507415771484 M 10 4.236507415771484 C 11.3673095703125 4.236507415771484 12.73462009429932 4.922317504882813 13.49662971496582 6.293937683105469 L 16.69857025146484 12.05742740631104 C 18.17975044250488 14.723557472229 16.25188064575195 17.99999809265137 13.20194053649902 17.99999809265137 L 6.798060417175293 17.99999809265137 C 3.748119354248047 17.99999809265137 1.820249557495117 14.723557472229 3.301429748535156 12.05742740631104 L 6.50337028503418 6.293937683105469 C 7.265379905700684 4.922317504882813 8.6326904296875 4.236507415771484 10 4.236507415771484 Z" stroke="none" fill="#a6e5f7"/>
    </g>
    <g id="Ellipse_1534" data-name="Ellipse 1534" transform="translate(1220 3725.336)" fill="none" stroke="#94e5e3" stroke-width="2">
      <circle cx="5" cy="5" r="5" stroke="none"/>
      <circle cx="5" cy="5" r="4" fill="none"/>
    </g>
    <g id="Group_5213" data-name="Group 5213" transform="translate(-149.859 2581.919)">
      <path id="Path_23929" data-name="Path 23929" d="M926.311,1129.819s-4.157,5.262-9.261,5.262-6.419-5.262-11.155-5.262-7.788,5.262-7.788,5.262" fill="none" stroke="#a6e5f7" stroke-linecap="round" stroke-width="1"/>
      <path id="Path_23930" data-name="Path 23930" d="M926.311,1129.819s-4.157,5.262-9.261,5.262-6.419-5.262-11.155-5.262-7.788,5.262-7.788,5.262" transform="translate(0 8)" fill="none" stroke="#a6e5f7" stroke-linecap="round" stroke-width="1"/>
    </g>
    <path id="Path_23887" data-name="Path 23887" d="M137.813,207.921c7.82-7.827,36.439-7.827,44.259,0s7.827,36.431,0,44.259-36.439,7.828-44.259,0-7.828-36.439,0-44.259" transform="translate(713.058 3494.949)" fill="#98dffd" opacity="0.12"/>
    <path id="Path_23884" data-name="Path 23884" d="M137.813,207.921c7.82-7.827,36.439-7.827,44.259,0s7.827,36.431,0,44.259-36.439,7.828-44.259,0-7.828-36.439,0-44.259" transform="translate(1081.058 3597.949)" fill="#4ecdc4" opacity="0.12"/>
    <g id="Iconly_Bold_Chart" data-name="Iconly/Bold/Chart" transform="translate(1225 3812)">
      <g id="Chart" transform="translate(2.667 2.667)">
        <path id="Chart-2" data-name="Chart" d="M19.8,27H7.2a7.226,7.226,0,0,1-5.319-1.876A7.226,7.226,0,0,1,0,19.8V7.2A7.226,7.226,0,0,1,1.876,1.876,7.226,7.226,0,0,1,7.2,0H19.8a7.216,7.216,0,0,1,5.315,1.876A7.263,7.263,0,0,1,27,7.2V19.8a7.225,7.225,0,0,1-1.876,5.319A7.228,7.228,0,0,1,19.8,27Zm-.027-12.268a1.167,1.167,0,0,0-.606.172,1.089,1.089,0,0,0-.513,1.066V20.4a1.115,1.115,0,0,0,1.12,1.012A1.138,1.138,0,0,0,20.9,20.4V15.97a1.132,1.132,0,0,0-.527-1.066A1.112,1.112,0,0,0,19.776,14.732ZM13.568,5.4a1.111,1.111,0,0,0-.594.172,1.143,1.143,0,0,0-.529,1.067V20.4a1.138,1.138,0,0,0,1.121,1.012,1.117,1.117,0,0,0,1.12-1.012V6.642a1.1,1.1,0,0,0-.512-1.067A1.177,1.177,0,0,0,13.568,5.4ZM7.276,9.831A1.11,1.11,0,0,0,6.683,10a1.138,1.138,0,0,0-.526,1.067V20.4a1.125,1.125,0,0,0,2.239,0V11.07A1.141,1.141,0,0,0,7.871,10,1.114,1.114,0,0,0,7.276,9.831Z" transform="translate(0.332 0.332)" fill="#fff"/>
      </g>
    </g>
    <g id="Iconly_Bold_Play" data-name="Iconly/Bold/Play" transform="translate(857 3709)">
      <g id="Play" transform="translate(2.667 2.667)">
        <path id="Play-2" data-name="Play" d="M13.333,26.666A13.333,13.333,0,1,1,26.666,13.342,13.344,13.344,0,0,1,13.333,26.666ZM11.815,8.04A1.785,1.785,0,0,0,11,8.233a1.669,1.669,0,0,0-.721.8,8.419,8.419,0,0,0-.232.94,20.521,20.521,0,0,0-.218,3.358,23.623,23.623,0,0,0,.193,3.254,1.463,1.463,0,0,1,.032.146,5.214,5.214,0,0,0,.277,1.024,1.613,1.613,0,0,0,1.429.875h.052a4.251,4.251,0,0,0,1.2-.36,19.636,19.636,0,0,0,5.135-3.5l.078-.077a5.253,5.253,0,0,0,.36-.412,1.548,1.548,0,0,0,.308-.937,1.623,1.623,0,0,0-.335-1.006l-.084-.091c-.086-.094-.215-.235-.339-.359a19.7,19.7,0,0,0-5.251-3.551A4.474,4.474,0,0,0,11.815,8.04Z" fill="#fff"/>
      </g>
    </g>
  </g>
</svg>